<svg width="226" height="226" viewBox="0 0 226 226" fill="none" xmlns="http://www.w3.org/2000/svg">
<path d="M48.1225 123.161V110.79H73.0425V123.161H48.1225ZM47.8555 99.131L52.3945 93.88V140.249L47.4105 134.998H77.9375V147.369H39.4005V86.76H77.9375V99.131H47.8555ZM85.2494 147.369V86.76H107.588C111.92 86.76 115.776 87.6203 119.158 89.341C122.6 91.0617 125.299 93.4943 127.257 96.639C129.275 99.7837 130.283 103.522 130.283 107.853C130.283 112.244 129.275 116.011 127.257 119.156C125.299 122.301 122.6 124.733 119.158 126.454C115.776 128.115 111.92 128.946 107.588 128.946H95.3954V116.397H106.609C109.873 116.397 112.394 115.685 114.174 114.261C116.014 112.778 116.933 110.642 116.933 107.853C116.933 105.064 116.014 102.958 114.174 101.534C112.394 100.051 109.873 99.309 106.609 99.309H95.3064L98.2434 96.372V147.369H85.2494ZM116.666 147.369L103.761 122.716H118.001L130.906 147.369H116.666ZM164.505 148.437C158.394 148.437 152.995 147.102 148.307 144.432C143.679 141.762 140.09 138.113 137.538 133.485C134.987 128.798 133.711 123.487 133.711 117.554C133.711 112.867 134.453 108.595 135.936 104.738C137.479 100.822 139.615 97.4697 142.344 94.681C145.074 91.833 148.307 89.6377 152.045 88.095C155.843 86.5523 159.996 85.781 164.505 85.781C171.447 85.781 177.173 87.2643 181.682 90.231C186.251 93.1383 189.781 97.3213 192.273 102.78L180.436 107.497C178.478 104.293 176.194 101.979 173.583 100.555C170.973 99.0717 167.947 98.33 164.505 98.33C161.123 98.33 158.097 99.131 155.427 100.733C152.817 102.276 150.74 104.471 149.197 107.319C147.714 110.167 146.972 113.579 146.972 117.554C146.972 121.233 147.714 124.496 149.197 127.344C150.74 130.133 152.817 132.328 155.427 133.93C158.097 135.473 161.123 136.244 164.505 136.244C167.65 136.244 170.439 135.651 172.871 134.464C175.304 133.277 177.262 131.586 178.745 129.391C180.229 127.136 181.059 124.526 181.237 121.559L184.975 126.098H163.526V114.439H193.074C193.312 115.388 193.49 116.397 193.608 117.465C193.727 118.533 193.786 119.601 193.786 120.669C193.786 124.822 192.985 128.62 191.383 132.061C189.841 135.443 187.705 138.38 184.975 140.872C182.305 143.305 179.22 145.174 175.719 146.479C172.219 147.784 168.481 148.437 164.505 148.437ZM41.0605 187.869C40.1605 187.869 39.3272 187.636 38.5605 187.169C37.7938 186.702 37.1772 186.086 36.7105 185.319C36.2438 184.552 36.0105 183.719 36.0105 182.819C36.0105 181.886 36.2438 181.036 36.7105 180.269C37.1772 179.502 37.7938 178.902 38.5605 178.469C39.3272 178.002 40.1605 177.769 41.0605 177.769C42.0272 177.769 42.8938 178.002 43.6605 178.469C44.4272 178.902 45.0272 179.502 45.4605 180.269C45.9272 181.036 46.1605 181.886 46.1605 182.819C46.1605 183.719 45.9272 184.552 45.4605 185.319C45.0272 186.086 44.4272 186.702 43.6605 187.169C42.8938 187.636 42.0272 187.869 41.0605 187.869ZM60.0894 187.969C57.5894 187.969 55.3894 187.419 53.4894 186.319C51.6227 185.219 50.1727 183.702 49.1394 181.769C48.1061 179.836 47.5894 177.619 47.5894 175.119C47.5894 172.619 48.1061 170.419 49.1394 168.519C50.1727 166.586 51.6227 165.069 53.4894 163.969C55.3894 162.869 57.5894 162.319 60.0894 162.319C62.8227 162.319 65.1894 162.986 67.1894 164.319C69.1894 165.652 70.6227 167.452 71.4894 169.719L64.8894 172.669C64.4227 171.636 63.8061 170.836 63.0394 170.269C62.2727 169.669 61.3061 169.369 60.1394 169.369C58.6727 169.369 57.4394 169.886 56.4394 170.919C55.4394 171.919 54.9394 173.319 54.9394 175.119C54.9394 176.919 55.4394 178.336 56.4394 179.369C57.4394 180.369 58.6727 180.869 60.1394 180.869C61.3061 180.869 62.2727 180.586 63.0394 180.019C63.8061 179.452 64.4227 178.652 64.8894 177.619L71.4894 180.519C70.6227 182.786 69.1727 184.602 67.1394 185.969C65.1061 187.302 62.7561 187.969 60.0894 187.969ZM83.9859 187.819C81.5525 187.819 79.4025 187.302 77.5359 186.269C75.7025 185.236 74.2692 183.769 73.2359 181.869C72.2359 179.969 71.7359 177.736 71.7359 175.169C71.7359 172.636 72.2359 170.402 73.2359 168.469C74.2692 166.536 75.7025 165.036 77.5359 163.969C79.4025 162.869 81.5525 162.319 83.9859 162.319C86.4859 162.319 88.6525 162.886 90.4859 164.019C92.3192 165.152 93.7359 166.686 94.7359 168.619C95.7359 170.519 96.2359 172.669 96.2359 175.069C96.2359 175.502 96.2192 175.919 96.1859 176.319C96.1525 176.719 96.1192 177.036 96.0859 177.269H77.4359V172.069H90.4859L89.6359 174.219C89.6359 172.386 89.1692 170.886 88.2359 169.719C87.3359 168.552 85.9359 167.969 84.0359 167.969C82.3359 167.969 80.9692 168.486 79.9359 169.519C78.9359 170.552 78.4359 171.919 78.4359 173.619V176.369C78.4359 178.202 78.9525 179.636 79.9859 180.669C81.0525 181.669 82.5192 182.169 84.3859 182.169C85.9525 182.169 87.1859 181.852 88.0859 181.219C89.0192 180.586 89.8025 179.802 90.4359 178.869L95.3859 181.619C94.3192 183.586 92.8192 185.119 90.8859 186.219C88.9525 187.286 86.6525 187.819 83.9859 187.819ZM113.945 162.319C115.578 162.319 116.912 162.602 117.945 163.169C118.978 163.702 119.762 164.452 120.295 165.419C120.862 166.386 121.228 167.486 121.395 168.719C121.595 169.919 121.695 171.169 121.695 172.469V187.369H114.395V172.869C114.395 171.469 114.145 170.552 113.645 170.119C113.145 169.652 112.478 169.419 111.645 169.419C110.945 169.419 110.212 169.569 109.445 169.869C108.712 170.136 107.995 170.519 107.295 171.019C106.595 171.519 105.978 172.086 105.445 172.719L104.145 169.019H106.195V187.369H98.8949V162.919H104.295L105.795 167.769L103.295 167.569C104.162 166.602 105.145 165.719 106.245 164.919C107.345 164.119 108.545 163.486 109.845 163.019C111.145 162.552 112.512 162.319 113.945 162.319ZM136.384 187.769C133.684 187.769 131.551 187.102 129.984 185.769C128.451 184.436 127.684 182.252 127.684 179.219V163.219L127.584 162.919L129.084 157.019H134.984V177.619C134.984 178.752 135.251 179.569 135.784 180.069C136.317 180.536 137.017 180.769 137.884 180.769C138.384 180.769 138.851 180.736 139.284 180.669C139.751 180.569 140.134 180.469 140.434 180.369V187.219C139.867 187.386 139.251 187.519 138.584 187.619C137.951 187.719 137.217 187.769 136.384 187.769ZM123.884 169.619V162.919H140.434V169.619H123.884ZM154.765 187.819C152.332 187.819 150.182 187.302 148.315 186.269C146.482 185.236 145.049 183.769 144.015 181.869C143.015 179.969 142.515 177.736 142.515 175.169C142.515 172.636 143.015 170.402 144.015 168.469C145.049 166.536 146.482 165.036 148.315 163.969C150.182 162.869 152.332 162.319 154.765 162.319C157.265 162.319 159.432 162.886 161.265 164.019C163.099 165.152 164.515 166.686 165.515 168.619C166.515 170.519 167.015 172.669 167.015 175.069C167.015 175.502 166.999 175.919 166.965 176.319C166.932 176.719 166.899 177.036 166.865 177.269H148.215V172.069H161.265L160.415 174.219C160.415 172.386 159.949 170.886 159.015 169.719C158.115 168.552 156.715 167.969 154.815 167.969C153.115 167.969 151.749 168.486 150.715 169.519C149.715 170.552 149.215 171.919 149.215 173.619V176.369C149.215 178.202 149.732 179.636 150.765 180.669C151.832 181.669 153.299 182.169 155.165 182.169C156.732 182.169 157.965 181.852 158.865 181.219C159.799 180.586 160.582 179.802 161.215 178.869L166.165 181.619C165.099 183.586 163.599 185.119 161.665 186.219C159.732 187.286 157.432 187.819 154.765 187.819ZM175.074 162.919L176.974 169.669V187.369H169.674V162.919H175.074ZM175.374 173.719L174.124 173.169V167.519L174.574 166.919C174.974 166.352 175.541 165.702 176.274 164.969C177.041 164.236 177.924 163.619 178.924 163.119C179.957 162.586 181.007 162.319 182.074 162.319C182.607 162.319 183.091 162.352 183.524 162.419C183.957 162.486 184.307 162.602 184.574 162.769V169.419H182.924C180.791 169.419 179.107 169.769 177.874 170.469C176.674 171.136 175.841 172.219 175.374 173.719Z" fill="black"/>
<rect x="5" y="5" width="215.993" height="215.993" rx="48" stroke="black" stroke-width="10"/>
<rect x="5" y="5" width="215.993" height="215.993" rx="48" stroke="black" stroke-opacity="0.2" stroke-width="10"/>
</svg>
