<svg width="971" height="1002" viewBox="0 0 971 1002" fill="none" xmlns="http://www.w3.org/2000/svg">
<path fill-rule="evenodd" clip-rule="evenodd" d="M485.736 0C683.08 0 847.745 57.4153 885.941 120.462C929.644 179.898 970.605 327.941 970.605 501.163C970.605 686.112 925.31 842.356 876.896 892.696C826.161 949.609 670.23 1001.05 485.736 1001.05C309.103 1001.05 158.652 953.066 101.629 899.886C49.1913 859.076 8.51907e-06 696.057 0 501.163C-7.94889e-06 319.314 44.1209 165.214 91.2856 112.249C138.251 53.3418 297.057 0 485.736 0Z" fill="black"/>
<path fill-rule="evenodd" clip-rule="evenodd" d="M491.053 107.796H486.973C404.339 107.796 339.599 114.892 289.067 121.691C237.39 128.634 196.592 143.164 164.561 175.158C132.531 207.188 118.037 247.986 111.095 299.7C104.295 350.196 104.295 414.936 104.295 497.57V501.65C104.295 584.284 104.295 649.024 111.095 699.556C118.037 751.234 132.567 792.032 164.561 824.062C196.592 856.092 237.39 870.586 289.103 877.529C339.599 884.328 404.339 891.424 486.973 891.424H491.053C573.687 891.424 638.427 884.328 688.959 877.529C740.637 870.586 781.435 856.056 813.465 824.062C845.495 792.032 859.989 751.234 866.932 699.52C873.731 649.024 873.731 584.284 873.731 501.65V497.57C873.731 414.936 873.731 350.196 866.932 299.664C859.989 247.986 845.459 207.188 813.465 175.158C781.435 143.128 740.637 128.634 688.923 121.691C638.427 114.892 573.687 107.796 491.053 107.796Z" fill="white"/>
<path fill-rule="evenodd" clip-rule="evenodd" d="M580.428 212.806H578.369C536.672 212.806 504.004 216.386 478.505 219.817C452.428 223.321 431.841 230.653 415.678 246.797C399.516 262.96 392.202 283.547 388.699 309.642C385.268 335.122 385.268 367.791 385.268 409.488V411.547C385.268 453.245 385.268 485.913 388.699 511.412C392.202 537.488 399.534 558.075 415.678 574.238C431.841 590.4 452.428 597.714 478.523 601.218C504.004 604.649 536.672 608.229 578.369 608.229H580.428C622.126 608.229 654.794 604.649 680.293 601.218C706.37 597.714 726.957 590.382 743.119 574.238C759.282 558.075 766.596 537.488 770.099 511.394C773.53 485.913 773.53 453.245 773.53 411.547V409.488C773.53 367.791 773.53 335.122 770.099 309.623C766.596 283.547 759.264 262.96 743.119 246.797C726.957 230.635 706.37 223.321 680.275 219.817C654.794 216.386 622.126 212.806 580.428 212.806Z" fill="black"/>
<circle cx="398.862" cy="590.805" r="198.881" fill="black"/>
<path d="M461.377 369.371C470.823 353.011 494.437 353.011 503.882 369.371L609.489 552.289C618.935 568.649 607.128 589.099 588.237 589.099H377.022C358.131 589.099 346.324 568.649 355.77 552.289L461.377 369.371Z" fill="white"/>
</svg>
