<svg width="385" height="138" viewBox="0 0 385 138" fill="none" xmlns="http://www.w3.org/2000/svg">
<rect width="384.436" height="137.429" rx="68.7147" fill="#1313FF"/>
<path d="M63.8234 62.9338V38.4838H69.2234L70.7234 43.3338L68.2234 43.1338C69.0567 42.1672 70.0067 41.2838 71.0734 40.4838C72.1401 39.6838 73.3067 39.0505 74.5734 38.5838C75.8401 38.1172 77.1567 37.8838 78.5234 37.8838C80.1567 37.8838 81.4567 38.1672 82.4234 38.7338C83.4234 39.2672 84.1734 40.0172 84.6734 40.9838C85.2067 41.9505 85.5567 43.0505 85.7234 44.2838C85.9234 45.4838 86.0234 46.7338 86.0234 48.0338V62.9338H78.7234V48.4338C78.7234 47.0338 78.4734 46.1172 77.9734 45.6838C77.4734 45.2172 76.8567 44.9838 76.1234 44.9838C75.0901 44.9838 74.0734 45.3005 73.0734 45.9338C72.0734 46.5338 71.1734 47.3172 70.3734 48.2838L69.0734 44.5838H71.1234V62.9338H63.8234ZM93.6234 62.9338V48.4338C93.6234 47.0338 93.3734 46.1172 92.8734 45.6838C92.4067 45.2172 91.8067 44.9838 91.0734 44.9838C90.0067 44.9838 88.9734 45.3005 87.9734 45.9338C86.9734 46.5338 86.0734 47.3172 85.2734 48.2838L83.1234 43.1338C83.9901 42.1672 84.9567 41.2838 86.0234 40.4838C87.0901 39.6838 88.2401 39.0505 89.4734 38.5838C90.7401 38.1172 92.0567 37.8838 93.4234 37.8838C95.0567 37.8838 96.3734 38.1672 97.3734 38.7338C98.3734 39.2672 99.1234 40.0172 99.6234 40.9838C100.123 41.9505 100.473 43.0505 100.673 44.2838C100.873 45.4838 100.973 46.7338 100.973 48.0338V62.9338H93.6234ZM115.371 63.3838C112.938 63.3838 110.788 62.8672 108.921 61.8338C107.088 60.8005 105.655 59.3338 104.621 57.4338C103.621 55.5338 103.121 53.3005 103.121 50.7338C103.121 48.2005 103.621 45.9672 104.621 44.0338C105.655 42.1005 107.088 40.6005 108.921 39.5338C110.788 38.4338 112.938 37.8838 115.371 37.8838C117.871 37.8838 120.038 38.4505 121.871 39.5838C123.705 40.7172 125.121 42.2505 126.121 44.1838C127.121 46.0838 127.621 48.2338 127.621 50.6338C127.621 51.0672 127.605 51.4838 127.571 51.8838C127.538 52.2838 127.505 52.6005 127.471 52.8338H108.821V47.6338H121.871L121.021 49.7838C121.021 47.9505 120.555 46.4505 119.621 45.2838C118.721 44.1172 117.321 43.5338 115.421 43.5338C113.721 43.5338 112.355 44.0505 111.321 45.0838C110.321 46.1172 109.821 47.4838 109.821 49.1838V51.9338C109.821 53.7672 110.338 55.2005 111.371 56.2338C112.438 57.2338 113.905 57.7338 115.771 57.7338C117.338 57.7338 118.571 57.4172 119.471 56.7838C120.405 56.1505 121.188 55.3672 121.821 54.4338L126.771 57.1838C125.705 59.1505 124.205 60.6838 122.271 61.7838C120.338 62.8505 118.038 63.3838 115.371 63.3838ZM130.28 62.9338V38.4838H135.68L137.18 43.3338L134.68 43.1338C135.514 42.1672 136.464 41.2838 137.53 40.4838C138.597 39.6838 139.764 39.0505 141.03 38.5838C142.297 38.1172 143.614 37.8838 144.98 37.8838C146.614 37.8838 147.914 38.1672 148.88 38.7338C149.88 39.2672 150.63 40.0172 151.13 40.9838C151.664 41.9505 152.014 43.0505 152.18 44.2838C152.38 45.4838 152.48 46.7338 152.48 48.0338V62.9338H145.18V48.4338C145.18 47.0338 144.93 46.1172 144.43 45.6838C143.93 45.2172 143.314 44.9838 142.58 44.9838C141.547 44.9838 140.53 45.3005 139.53 45.9338C138.53 46.5338 137.63 47.3172 136.83 48.2838L135.53 44.5838H137.58V62.9338H130.28ZM160.08 62.9338V48.4338C160.08 47.0338 159.83 46.1172 159.33 45.6838C158.864 45.2172 158.264 44.9838 157.53 44.9838C156.464 44.9838 155.43 45.3005 154.43 45.9338C153.43 46.5338 152.53 47.3172 151.73 48.2838L149.58 43.1338C150.447 42.1672 151.414 41.2838 152.48 40.4838C153.547 39.6838 154.697 39.0505 155.93 38.5838C157.197 38.1172 158.514 37.8838 159.88 37.8838C161.514 37.8838 162.83 38.1672 163.83 38.7338C164.83 39.2672 165.58 40.0172 166.08 40.9838C166.58 41.9505 166.93 43.0505 167.13 44.2838C167.33 45.4838 167.43 46.7338 167.43 48.0338V62.9338H160.08ZM184.823 63.5338C182.689 63.5338 180.823 63.0172 179.223 61.9838C177.623 60.9172 176.373 59.4338 175.473 57.5338C174.606 55.6005 174.173 53.3172 174.173 50.6838C174.173 47.9172 174.606 45.5838 175.473 43.6838C176.339 41.7838 177.556 40.3505 179.123 39.3838C180.723 38.3838 182.606 37.8838 184.773 37.8838C186.973 37.8838 188.923 38.4338 190.623 39.5338C192.323 40.6005 193.656 42.1005 194.623 44.0338C195.589 45.9672 196.073 48.1838 196.073 50.6838C196.073 53.1838 195.589 55.4172 194.623 57.3838C193.689 59.3172 192.373 60.8338 190.673 61.9338C189.006 63.0005 187.056 63.5338 184.823 63.5338ZM171.273 62.9338V28.8838H178.573V45.2838H178.123V56.6838H178.573L176.723 62.9338H171.273ZM183.423 56.6838C184.923 56.6838 186.156 56.1338 187.123 55.0338C188.123 53.9005 188.623 52.4505 188.623 50.6838C188.623 48.9505 188.123 47.5338 187.123 46.4338C186.156 45.3005 184.923 44.7338 183.423 44.7338C181.956 44.7338 180.723 45.3005 179.723 46.4338C178.723 47.5338 178.223 48.9505 178.223 50.6838C178.223 52.4505 178.723 53.9005 179.723 55.0338C180.723 56.1338 181.956 56.6838 183.423 56.6838ZM209.246 63.3838C206.813 63.3838 204.663 62.8672 202.796 61.8338C200.963 60.8005 199.53 59.3338 198.496 57.4338C197.496 55.5338 196.996 53.3005 196.996 50.7338C196.996 48.2005 197.496 45.9672 198.496 44.0338C199.53 42.1005 200.963 40.6005 202.796 39.5338C204.663 38.4338 206.813 37.8838 209.246 37.8838C211.746 37.8838 213.913 38.4505 215.746 39.5838C217.58 40.7172 218.996 42.2505 219.996 44.1838C220.996 46.0838 221.496 48.2338 221.496 50.6338C221.496 51.0672 221.48 51.4838 221.446 51.8838C221.413 52.2838 221.38 52.6005 221.346 52.8338H202.696V47.6338H215.746L214.896 49.7838C214.896 47.9505 214.43 46.4505 213.496 45.2838C212.596 44.1172 211.196 43.5338 209.296 43.5338C207.596 43.5338 206.23 44.0505 205.196 45.0838C204.196 46.1172 203.696 47.4838 203.696 49.1838V51.9338C203.696 53.7672 204.213 55.2005 205.246 56.2338C206.313 57.2338 207.78 57.7338 209.646 57.7338C211.213 57.7338 212.446 57.4172 213.346 56.7838C214.28 56.1505 215.063 55.3672 215.696 54.4338L220.646 57.1838C219.58 59.1505 218.08 60.6838 216.146 61.7838C214.213 62.8505 211.913 63.3838 209.246 63.3838ZM229.555 38.4838L231.455 45.2338V62.9338H224.155V38.4838H229.555ZM229.855 49.2838L228.605 48.7338V43.0838L229.055 42.4838C229.455 41.9172 230.022 41.2672 230.755 40.5338C231.522 39.8005 232.405 39.1838 233.405 38.6838C234.439 38.1505 235.489 37.8838 236.555 37.8838C237.089 37.8838 237.572 37.9172 238.005 37.9838C238.439 38.0505 238.789 38.1672 239.055 38.3338V44.9838H237.405C235.272 44.9838 233.589 45.3338 232.355 46.0338C231.155 46.7005 230.322 47.7838 229.855 49.2838ZM249.879 63.6838C247.912 63.6838 246.062 63.3005 244.329 62.5338C242.629 61.7672 241.079 60.4505 239.679 58.5838L243.829 54.5838C244.962 55.7505 246.046 56.5838 247.079 57.0838C248.112 57.5838 249.246 57.8338 250.479 57.8338C251.212 57.8338 251.796 57.6838 252.229 57.3838C252.696 57.0505 252.929 56.6505 252.929 56.1838C252.929 55.7838 252.796 55.4505 252.529 55.1838C252.262 54.9172 251.762 54.6505 251.029 54.3838C250.296 54.1172 249.229 53.8005 247.829 53.4338C245.262 52.8005 243.346 51.8838 242.079 50.6838C240.846 49.4505 240.229 47.8172 240.229 45.7838C240.229 44.3172 240.612 42.9838 241.379 41.7838C242.146 40.5505 243.246 39.5672 244.679 38.8338C246.112 38.1005 247.812 37.7338 249.779 37.7338C252.112 37.7338 254.096 38.1838 255.729 39.0838C257.362 39.9505 258.712 41.0172 259.779 42.2838L255.279 46.1338C254.546 45.4672 253.662 44.9005 252.629 44.4338C251.596 43.9672 250.429 43.7338 249.129 43.7338C248.429 43.7338 247.829 43.8672 247.329 44.1338C246.829 44.4005 246.579 44.8005 246.579 45.3338C246.579 45.8338 246.879 46.2505 247.479 46.5838C248.079 46.9172 249.279 47.3005 251.079 47.7338C254.112 48.4672 256.279 49.4505 257.579 50.6838C258.912 51.9172 259.579 53.5672 259.579 55.6338C259.579 57.2338 259.162 58.6505 258.329 59.8838C257.496 61.0838 256.346 62.0172 254.879 62.6838C253.412 63.3505 251.746 63.6838 249.879 63.6838ZM262.487 62.9338V28.8838H269.787V62.9338H262.487ZM277.987 62.9338V48.4338C277.987 47.0338 277.737 46.1172 277.237 45.6838C276.737 45.2172 276.071 44.9838 275.237 44.9838C274.537 44.9838 273.804 45.1338 273.037 45.4338C272.304 45.7005 271.587 46.0838 270.887 46.5838C270.187 47.0838 269.571 47.6505 269.037 48.2838L266.887 43.1338C267.754 42.1672 268.737 41.2838 269.837 40.4838C270.937 39.6838 272.137 39.0505 273.437 38.5838C274.737 38.1172 276.104 37.8838 277.537 37.8838C279.171 37.8838 280.504 38.1672 281.537 38.7338C282.571 39.2672 283.354 40.0172 283.887 40.9838C284.454 41.9505 284.821 43.0505 284.987 44.2838C285.187 45.4838 285.287 46.7338 285.287 48.0338V62.9338H277.987ZM296.573 62.9338H289.273V38.4838H296.573V62.9338ZM288.623 30.7838C288.623 29.4838 289.006 28.4338 289.773 27.6338C290.573 26.8338 291.623 26.4338 292.923 26.4338C294.223 26.4338 295.256 26.8338 296.023 27.6338C296.823 28.4338 297.223 29.4838 297.223 30.7838C297.223 32.0505 296.823 33.0838 296.023 33.8838C295.256 34.6505 294.223 35.0338 292.923 35.0338C291.623 35.0338 290.573 34.6505 289.773 33.8838C289.006 33.0838 288.623 32.0505 288.623 30.7838ZM314.368 63.5338C312.202 63.5338 310.318 63.0505 308.718 62.0838C307.152 61.0838 305.935 59.6338 305.068 57.7338C304.202 55.8338 303.768 53.5005 303.768 50.7338C303.768 48.0672 304.202 45.7838 305.068 43.8838C305.968 41.9505 307.218 40.4672 308.818 39.4338C310.418 38.4005 312.285 37.8838 314.418 37.8838C316.652 37.8838 318.602 38.4338 320.268 39.5338C321.968 40.6005 323.285 42.1005 324.218 44.0338C325.185 45.9672 325.668 48.2005 325.668 50.7338C325.668 53.2338 325.185 55.4505 324.218 57.3838C323.252 59.3172 321.918 60.8338 320.218 61.9338C318.518 63.0005 316.568 63.5338 314.368 63.5338ZM300.868 72.4338V38.4838H306.318L308.168 44.7338H307.718V56.1338H308.168V72.4338H300.868ZM313.018 56.6838C314.518 56.6838 315.752 56.1338 316.718 55.0338C317.718 53.9005 318.218 52.4672 318.218 50.7338C318.218 48.9672 317.718 47.5338 316.718 46.4338C315.752 45.3005 314.518 44.7338 313.018 44.7338C311.552 44.7338 310.318 45.3005 309.318 46.4338C308.318 47.5338 307.818 48.9505 307.818 50.6838C307.818 52.4505 308.318 53.9005 309.318 55.0338C310.318 56.1338 311.552 56.6838 313.018 56.6838Z" fill="white"/>
<path d="M69.2234 103.434C68.3234 103.434 67.4901 103.201 66.7234 102.734C65.9567 102.267 65.3401 101.651 64.8734 100.884C64.4067 100.117 64.1734 99.2838 64.1734 98.3838C64.1734 97.4505 64.4067 96.6005 64.8734 95.8338C65.3401 95.0672 65.9567 94.4672 66.7234 94.0338C67.4901 93.5672 68.3234 93.3338 69.2234 93.3338C70.1901 93.3338 71.0567 93.5672 71.8234 94.0338C72.5901 94.4672 73.1901 95.0672 73.6234 95.8338C74.0901 96.6005 74.3234 97.4505 74.3234 98.3838C74.3234 99.2838 74.0901 100.117 73.6234 100.884C73.1901 101.651 72.5901 102.267 71.8234 102.734C71.0567 103.201 70.1901 103.434 69.2234 103.434ZM88.2523 103.534C85.7523 103.534 83.5523 102.984 81.6523 101.884C79.7856 100.784 78.3356 99.2672 77.3023 97.3338C76.269 95.4005 75.7523 93.1838 75.7523 90.6838C75.7523 88.1838 76.269 85.9838 77.3023 84.0838C78.3356 82.1505 79.7856 80.6338 81.6523 79.5338C83.5523 78.4338 85.7523 77.8838 88.2523 77.8838C90.9856 77.8838 93.3523 78.5505 95.3523 79.8838C97.3523 81.2172 98.7856 83.0172 99.6523 85.2838L93.0523 88.2338C92.5856 87.2005 91.969 86.4005 91.2023 85.8338C90.4356 85.2338 89.469 84.9338 88.3023 84.9338C86.8356 84.9338 85.6023 85.4505 84.6023 86.4838C83.6023 87.4838 83.1023 88.8838 83.1023 90.6838C83.1023 92.4838 83.6023 93.9005 84.6023 94.9338C85.6023 95.9338 86.8356 96.4338 88.3023 96.4338C89.469 96.4338 90.4356 96.1505 91.2023 95.5838C91.969 95.0172 92.5856 94.2172 93.0523 93.1838L99.6523 96.0838C98.7856 98.3505 97.3356 100.167 95.3023 101.534C93.269 102.867 90.919 103.534 88.2523 103.534ZM112.149 103.384C109.715 103.384 107.565 102.867 105.699 101.834C103.865 100.801 102.432 99.3338 101.399 97.4338C100.399 95.5338 99.8988 93.3005 99.8988 90.7338C99.8988 88.2005 100.399 85.9672 101.399 84.0338C102.432 82.1005 103.865 80.6005 105.699 79.5338C107.565 78.4338 109.715 77.8838 112.149 77.8838C114.649 77.8838 116.815 78.4505 118.649 79.5838C120.482 80.7172 121.899 82.2505 122.899 84.1838C123.899 86.0838 124.399 88.2338 124.399 90.6338C124.399 91.0672 124.382 91.4838 124.349 91.8838C124.315 92.2838 124.282 92.6005 124.249 92.8338H105.599V87.6338H118.649L117.799 89.7838C117.799 87.9505 117.332 86.4505 116.399 85.2838C115.499 84.1172 114.099 83.5338 112.199 83.5338C110.499 83.5338 109.132 84.0505 108.099 85.0838C107.099 86.1172 106.599 87.4838 106.599 89.1838V91.9338C106.599 93.7672 107.115 95.2005 108.149 96.2338C109.215 97.2338 110.682 97.7338 112.549 97.7338C114.115 97.7338 115.349 97.4172 116.249 96.7838C117.182 96.1505 117.965 95.3672 118.599 94.4338L123.549 97.1838C122.482 99.1505 120.982 100.684 119.049 101.784C117.115 102.851 114.815 103.384 112.149 103.384ZM142.108 77.8838C143.741 77.8838 145.074 78.1672 146.108 78.7338C147.141 79.2672 147.924 80.0172 148.458 80.9838C149.024 81.9505 149.391 83.0505 149.558 84.2838C149.758 85.4838 149.858 86.7338 149.858 88.0338V102.934H142.558V88.4338C142.558 87.0338 142.308 86.1172 141.808 85.6838C141.308 85.2172 140.641 84.9838 139.808 84.9838C139.108 84.9838 138.374 85.1338 137.608 85.4338C136.874 85.7005 136.158 86.0838 135.458 86.5838C134.758 87.0838 134.141 87.6505 133.608 88.2838L132.308 84.5838H134.358V102.934H127.058V78.4838H132.458L133.958 83.3338L131.458 83.1338C132.324 82.1672 133.308 81.2838 134.408 80.4838C135.508 79.6838 136.708 79.0505 138.008 78.5838C139.308 78.1172 140.674 77.8838 142.108 77.8838ZM164.547 103.334C161.847 103.334 159.713 102.667 158.147 101.334C156.613 100.001 155.847 97.8172 155.847 94.7838V78.7838L155.747 78.4838L157.247 72.5838H163.147V93.1838C163.147 94.3172 163.413 95.1338 163.947 95.6338C164.48 96.1005 165.18 96.3338 166.047 96.3338C166.547 96.3338 167.013 96.3005 167.447 96.2338C167.913 96.1338 168.297 96.0338 168.597 95.9338V102.784C168.03 102.951 167.413 103.084 166.747 103.184C166.113 103.284 165.38 103.334 164.547 103.334ZM152.047 85.1838V78.4838H168.597V85.1838H152.047ZM182.928 103.384C180.495 103.384 178.345 102.867 176.478 101.834C174.645 100.801 173.211 99.3338 172.178 97.4338C171.178 95.5338 170.678 93.3005 170.678 90.7338C170.678 88.2005 171.178 85.9672 172.178 84.0338C173.211 82.1005 174.645 80.6005 176.478 79.5338C178.345 78.4338 180.495 77.8838 182.928 77.8838C185.428 77.8838 187.595 78.4505 189.428 79.5838C191.261 80.7172 192.678 82.2505 193.678 84.1838C194.678 86.0838 195.178 88.2338 195.178 90.6338C195.178 91.0672 195.161 91.4838 195.128 91.8838C195.095 92.2838 195.061 92.6005 195.028 92.8338H176.378V87.6338H189.428L188.578 89.7838C188.578 87.9505 188.111 86.4505 187.178 85.2838C186.278 84.1172 184.878 83.5338 182.978 83.5338C181.278 83.5338 179.911 84.0505 178.878 85.0838C177.878 86.1172 177.378 87.4838 177.378 89.1838V91.9338C177.378 93.7672 177.895 95.2005 178.928 96.2338C179.995 97.2338 181.461 97.7338 183.328 97.7338C184.895 97.7338 186.128 97.4172 187.028 96.7838C187.961 96.1505 188.745 95.3672 189.378 94.4338L194.328 97.1838C193.261 99.1505 191.761 100.684 189.828 101.784C187.895 102.851 185.595 103.384 182.928 103.384ZM203.237 78.4838L205.137 85.2338V102.934H197.837V78.4838H203.237ZM203.537 89.2838L202.287 88.7338V83.0838L202.737 82.4838C203.137 81.9172 203.704 81.2672 204.437 80.5338C205.204 79.8005 206.087 79.1838 207.087 78.6838C208.12 78.1505 209.17 77.8838 210.237 77.8838C210.77 77.8838 211.254 77.9172 211.687 77.9838C212.12 78.0505 212.47 78.1672 212.737 78.3338V84.9838H211.087C208.954 84.9838 207.27 85.3338 206.037 86.0338C204.837 86.7005 204.004 87.7838 203.537 89.2838Z" fill="white"/>
</svg>
