<svg width="263" height="69" viewBox="0 0 263 69" fill="none" xmlns="http://www.w3.org/2000/svg">
<path d="M96.3506 10.8835C97.9363 10.8835 99.202 11.4695 100.148 12.6416C101.122 13.8137 101.608 15.3904 101.608 17.3717V33.8225H95.2657V18.2089C95.2657 16.5345 94.7649 15.6973 93.7635 15.6973C92.7898 15.6973 91.8579 16.5764 90.9677 18.3345V33.8225H84.625V18.2089C84.625 16.5345 84.1381 15.6973 83.1645 15.6973C82.6081 15.6973 82.1073 15.9206 81.6622 16.3671C81.2171 16.8136 80.772 17.4694 80.3269 18.3345V33.8225H73.9425V11.5951H79.5758L79.9931 14.2323C81.5232 11.9997 83.4426 10.8835 85.7516 10.8835C86.8644 10.8835 87.8241 11.1905 88.6309 11.8044C89.4376 12.3904 90.0357 13.2555 90.4252 14.3997C91.2319 13.2276 92.1082 12.3486 93.0541 11.7625C94.0277 11.1765 95.1266 10.8835 96.3506 10.8835Z" fill="black"/>
<path d="M122.919 22.2693C122.919 23.1623 122.877 23.9437 122.794 24.6134H110.442C110.609 26.5669 111.04 27.9203 111.736 28.6738C112.431 29.4273 113.419 29.804 114.698 29.804C115.533 29.804 116.326 29.6505 117.077 29.3436C117.828 29.0366 118.649 28.5622 119.539 27.9203L122.168 31.4784C119.887 33.5156 117.23 34.5341 114.198 34.5341C110.859 34.5341 108.314 33.5016 106.561 31.4365C104.837 29.3436 103.974 26.4692 103.974 22.8135C103.974 19.2414 104.809 16.3671 106.478 14.1904C108.147 11.9858 110.498 10.8835 113.53 10.8835C116.451 10.8835 118.746 11.8742 120.415 13.8555C122.084 15.809 122.919 18.6136 122.919 22.2693ZM116.618 20.4275C116.618 18.6694 116.381 17.3578 115.908 16.4927C115.463 15.5997 114.698 15.1532 113.613 15.1532C112.64 15.1532 111.889 15.5718 111.36 16.4089C110.832 17.2182 110.512 18.6554 110.4 20.7205H116.618V20.4275Z" fill="black"/>
<path d="M137.35 10.8835C139.075 10.8835 140.424 11.4695 141.398 12.6416C142.399 13.7857 142.9 15.3625 142.9 17.3717V33.8225H136.474V18.2508C136.474 17.3299 136.335 16.688 136.056 16.3252C135.806 15.9345 135.417 15.7392 134.888 15.7392C134.332 15.7392 133.789 15.9764 133.261 16.4508C132.76 16.8973 132.231 17.5671 131.675 18.4601V33.8225H125.249V11.5951H130.882L131.341 14.2323C132.148 13.116 133.038 12.2788 134.012 11.7207C134.985 11.1626 136.098 10.8835 137.35 10.8835Z" fill="black"/>
<path d="M159.233 32.776C158.482 33.3342 157.605 33.7667 156.604 34.0737C155.63 34.3807 154.643 34.5341 153.641 34.5341C151.388 34.5341 149.691 33.8923 148.55 32.6086C147.41 31.3249 146.84 29.5249 146.84 27.2087V16.0741H144.169V11.5951H146.84V6.78125L153.266 6.02778V11.5951H157.814L157.146 16.0741H153.266V27.125C153.266 28.6598 153.85 29.4273 155.018 29.4273C155.658 29.4273 156.354 29.218 157.105 28.7994L159.233 32.776Z" fill="black"/>
<path d="M168.371 10.8835C171.486 10.8835 173.921 11.9021 175.673 13.9392C177.454 15.9485 178.344 18.8787 178.344 22.7297C178.344 26.4134 177.454 29.3017 175.673 31.3947C173.893 33.4877 171.459 34.5341 168.371 34.5341C165.255 34.5341 162.821 33.5156 161.068 31.4784C159.316 29.4412 158.439 26.5111 158.439 22.6879C158.439 18.9763 159.316 16.088 161.068 14.023C162.849 11.93 165.283 10.8835 168.371 10.8835ZM168.371 15.6555C167.23 15.6555 166.396 16.1997 165.867 17.288C165.338 18.3764 165.074 20.1763 165.074 22.6879C165.074 25.2553 165.338 27.0831 165.867 28.1715C166.396 29.2598 167.23 29.804 168.371 29.804C169.511 29.804 170.346 29.2598 170.874 28.1715C171.431 27.0552 171.709 25.2413 171.709 22.7297C171.709 20.1624 171.445 18.3484 170.916 17.288C170.388 16.1997 169.539 15.6555 168.371 15.6555Z" fill="black"/>
<path d="M192.205 10.9672C192.928 10.9672 193.568 11.0788 194.125 11.3021L193.081 17.4973C192.497 17.3299 191.913 17.2461 191.329 17.2461C190.188 17.2461 189.312 17.6926 188.7 18.5856C188.088 19.4507 187.615 20.7484 187.281 22.4786V33.8225H180.855V11.5951H186.488L186.989 15.488C187.49 14.0369 188.185 12.9207 189.075 12.1393C189.966 11.3579 191.009 10.9672 192.205 10.9672Z" fill="black"/>
<path d="M202.113 10.8835C203.588 10.8835 204.965 11.1207 206.244 11.5951C207.524 12.0695 208.651 12.7393 209.624 13.6044L207.288 17.1206C205.618 16.0322 204.047 15.488 202.572 15.488C201.793 15.488 201.195 15.6555 200.778 15.9904C200.361 16.2973 200.152 16.7299 200.152 17.288C200.152 17.7066 200.249 18.0694 200.444 18.3763C200.667 18.6554 201.07 18.9484 201.654 19.2554C202.238 19.5345 203.115 19.8833 204.283 20.3019C206.342 20.9995 207.858 21.8786 208.831 22.939C209.833 23.9995 210.334 25.4367 210.334 27.2506C210.334 29.4831 209.485 31.2551 207.788 32.5667C206.091 33.8783 203.921 34.5341 201.279 34.5341C199.582 34.5341 197.996 34.2411 196.522 33.6551C195.075 33.0691 193.837 32.2737 192.808 31.2691L195.854 27.8366C197.579 29.2319 199.304 29.9296 201.028 29.9296C201.891 29.9296 202.558 29.7482 203.031 29.3854C203.532 28.9947 203.782 28.4645 203.782 27.7948C203.782 27.2645 203.671 26.832 203.449 26.4971C203.254 26.1622 202.864 25.8413 202.28 25.5343C201.724 25.2274 200.847 24.8646 199.651 24.446C197.62 23.7483 196.132 22.8693 195.186 21.8088C194.268 20.7205 193.809 19.3531 193.809 17.7066C193.809 16.4229 194.143 15.2648 194.811 14.2323C195.478 13.1997 196.438 12.3904 197.69 11.8044C198.942 11.1905 200.416 10.8835 202.113 10.8835Z" fill="black"/>
<path d="M224.458 10.8835C226.182 10.8835 227.532 11.4695 228.505 12.6416C229.507 13.7857 230.008 15.3625 230.008 17.3717V33.8225H223.581V18.2508C223.581 17.3299 223.442 16.688 223.164 16.3252C222.886 15.9345 222.496 15.7392 221.996 15.7392C221.439 15.7392 220.897 15.9764 220.368 16.4508C219.868 16.8973 219.339 17.5671 218.783 18.4601V33.8225H212.357V2.76273L218.783 2.09298V14.023C219.562 12.9625 220.41 12.1811 221.328 11.6788C222.246 11.1486 223.289 10.8835 224.458 10.8835Z" fill="black"/>
<path d="M239.831 11.5951V33.8225H233.405V11.5951H239.831ZM236.576 0C237.661 0 238.551 0.348829 239.247 1.04649C239.97 1.74415 240.332 2.60925 240.332 3.64178C240.332 4.70222 239.97 5.58128 239.247 6.27893C238.551 6.97659 237.661 7.32542 236.576 7.32542C235.491 7.32542 234.601 6.97659 233.906 6.27893C233.21 5.58128 232.862 4.70222 232.862 3.64178C232.862 2.60925 233.21 1.74415 233.906 1.04649C234.601 0.348829 235.491 0 236.576 0Z" fill="black"/>
<path d="M255.178 10.8835C257.626 10.8835 259.462 11.9021 260.686 13.9392C261.938 15.9764 262.564 18.8787 262.564 22.646C262.564 24.9902 262.23 27.0692 261.563 28.8831C260.923 30.6691 260.005 32.0644 258.809 33.0691C257.612 34.0458 256.208 34.5341 254.594 34.5341C252.675 34.5341 251.075 33.7667 249.795 32.2319V42.4037L243.369 43.0735V11.5951H249.086L249.378 14.023C250.88 11.93 252.814 10.8835 255.178 10.8835ZM252.675 29.7622C254.844 29.7622 255.929 27.418 255.929 22.7297C255.929 20.0228 255.679 18.1671 255.178 17.1624C254.705 16.1299 253.996 15.6136 253.05 15.6136C251.798 15.6136 250.713 16.4369 249.795 18.0833V27.9203C250.602 29.1482 251.562 29.7622 252.675 29.7622Z" fill="black"/>
<path d="M0 38.4271C1.34987e-06 22.9378 12.5172 10.3812 27.958 10.3812C43.3987 10.3812 55.9159 22.9378 55.9159 38.4271C55.9159 53.9164 43.3987 66.473 27.9579 66.473C12.5172 66.473 -1.34987e-06 53.9164 0 38.4271Z" fill="#1313FF"/>
<path d="M77.3642 60.6127C78.4213 60.6127 79.2976 60.9754 79.9931 61.701C80.6886 62.4266 81.0363 63.2917 81.0363 64.2963C81.0363 65.3288 80.6886 66.2079 79.9931 66.9334C79.2976 67.659 78.4213 68.0218 77.3642 68.0218C76.3071 68.0218 75.4308 67.659 74.7354 66.9334C74.0677 66.2079 73.7339 65.3288 73.7339 64.2963C73.7339 63.2917 74.0816 62.4266 74.7771 61.701C75.4726 60.9754 76.3349 60.6127 77.3642 60.6127Z" fill="black"/>
<path d="M92.1673 44.3711C93.5583 44.3711 94.8101 44.5944 95.9229 45.0409C97.0356 45.4874 98.0788 46.1711 99.0525 47.092L96.3819 50.7757C95.7421 50.2733 95.1301 49.9106 94.5459 49.6873C93.9617 49.4361 93.3357 49.3106 92.6681 49.3106C91.3884 49.3106 90.4287 49.8408 89.7888 50.9012C89.149 51.9617 88.8291 53.7756 88.8291 56.343C88.8291 58.7987 89.149 60.515 89.7888 61.4917C90.4565 62.4684 91.4023 62.9568 92.6264 62.9568C93.2662 62.9568 93.8504 62.8591 94.3789 62.6638C94.9075 62.4405 95.5334 62.0777 96.2567 61.5754L99.0525 65.3846C97.133 67.1427 94.8658 68.0218 92.2508 68.0218C89.0795 68.0218 86.5897 67.0032 84.7814 64.966C83.001 62.9289 82.1108 60.0685 82.1108 56.3848C82.1108 53.957 82.5142 51.8361 83.3209 50.0222C84.1555 48.2083 85.3239 46.8129 86.8261 45.8362C88.3562 44.8595 90.1366 44.3711 92.1673 44.3711Z" fill="black"/>
<path d="M117.581 55.7569C117.581 56.6499 117.539 57.4313 117.455 58.1011H105.104C105.271 60.0545 105.702 61.408 106.397 62.1615C107.093 62.9149 108.08 63.2917 109.36 63.2917C110.195 63.2917 110.987 63.1382 111.739 62.8312C112.49 62.5242 113.31 62.0498 114.201 61.408L116.829 64.966C114.548 67.0032 111.892 68.0218 108.859 68.0218C105.521 68.0218 102.976 66.9893 101.223 64.9242C99.4983 62.8312 98.6359 59.9568 98.6359 56.3011C98.6359 52.7291 99.4704 49.8547 101.14 47.678C102.809 45.4734 105.159 44.3711 108.192 44.3711C111.113 44.3711 113.408 45.3618 115.077 47.3432C116.746 49.2966 117.581 52.1012 117.581 55.7569ZM111.28 53.9151C111.28 52.157 111.043 50.8454 110.57 49.9803C110.125 49.0873 109.36 48.6408 108.275 48.6408C107.301 48.6408 106.55 49.0594 106.022 49.8966C105.493 50.7059 105.173 52.1431 105.062 54.2081H111.28V53.9151Z" fill="black"/>
<path d="M132.012 44.3711C133.736 44.3711 135.086 44.9572 136.059 46.1292C137.061 47.2734 137.562 48.8501 137.562 50.8594V67.3102H131.135V51.7384C131.135 50.8175 130.996 50.1757 130.718 49.8129C130.468 49.4222 130.078 49.2268 129.55 49.2268C128.993 49.2268 128.451 49.4641 127.922 49.9385C127.422 50.385 126.893 51.0547 126.337 51.9477V67.3102H119.91V45.0828H125.544L126.003 47.7199C126.81 46.6036 127.7 45.7665 128.673 45.2083C129.647 44.6502 130.76 44.3711 132.012 44.3711Z" fill="black"/>
<path d="M153.895 66.2637C153.143 66.8218 152.267 67.2544 151.266 67.5613C150.292 67.8683 149.304 68.0218 148.303 68.0218C146.05 68.0218 144.353 67.3799 143.212 66.0963C142.072 64.8126 141.501 63.0126 141.501 60.6964V49.5617H138.831V45.0828H141.501V40.2689L147.927 39.5154V45.0828H152.476L151.808 49.5617H147.927V60.6127C147.927 62.1475 148.512 62.9149 149.68 62.9149C150.32 62.9149 151.015 62.7056 151.766 62.287L153.895 66.2637Z" fill="black"/>
<path d="M172.046 55.7569C172.046 56.6499 172.004 57.4313 171.921 58.1011H159.569C159.736 60.0545 160.167 61.408 160.863 62.1615C161.558 62.9149 162.546 63.2917 163.825 63.2917C164.66 63.2917 165.453 63.1382 166.204 62.8312C166.955 62.5242 167.776 62.0498 168.666 61.408L171.295 64.966C169.013 67.0032 166.357 68.0218 163.324 68.0218C159.986 68.0218 157.441 66.9893 155.688 64.9242C153.963 62.8312 153.101 59.9568 153.101 56.3011C153.101 52.7291 153.936 49.8547 155.605 47.678C157.274 45.4734 159.625 44.3711 162.657 44.3711C165.578 44.3711 167.873 45.3618 169.542 47.3432C171.211 49.2966 172.046 52.1012 172.046 55.7569ZM165.745 53.9151C165.745 52.157 165.508 50.8454 165.035 49.9803C164.59 49.0873 163.825 48.6408 162.74 48.6408C161.767 48.6408 161.016 49.0594 160.487 49.8966C159.958 50.7059 159.639 52.1431 159.527 54.2081H165.745V53.9151Z" fill="black"/>
<path d="M185.726 44.4549C186.449 44.4549 187.089 44.5665 187.645 44.7897L186.602 50.985C186.018 50.8175 185.434 50.7338 184.849 50.7338C183.709 50.7338 182.833 51.1803 182.221 52.0733C181.609 52.9384 181.136 54.236 180.802 55.9662V67.3102H174.376V45.0828H180.009L180.51 48.9757C181.01 47.5246 181.706 46.4083 182.596 45.6269C183.486 44.8455 184.53 44.4549 185.726 44.4549Z" fill="black"/>
</svg>
