<svg width="592" height="592" viewBox="0 0 592 592" fill="none" xmlns="http://www.w3.org/2000/svg">
<path d="M29 165.176C29 90.5203 89.5203 30 164.176 30H431.824C506.48 30 567 90.5203 567 165.176V299C567 447.565 446.565 568 298 568C149.435 568 29 447.565 29 299V165.176Z" fill="white"/>
<path fill-rule="evenodd" clip-rule="evenodd" d="M148.744 0C66.5948 0 0 66.5948 0 148.744V296C0 459.476 132.524 592 296 592C459.476 592 592 459.476 592 296V148.744C592 66.5948 525.405 0 443.256 0H148.744ZM194.695 148.352C196.94 134.845 208.624 124.943 222.316 124.943H321.729C371.329 124.943 407.354 134.317 429.805 153.065C452.255 172.334 463.48 201.759 463.48 241.338C463.48 280.397 451.733 309.301 428.238 328.049C405.266 346.276 370.024 355.39 322.512 355.39H286.757C277.88 355.39 269.529 359.6 264.249 366.736L215.148 433.099C209.867 440.235 201.516 444.444 192.639 444.444H178.517C161.22 444.444 148.06 428.917 150.896 411.853L194.695 148.352Z" fill="#2841CF"/>
</svg>
