<svg width="3233" height="743" viewBox="0 0 3233 743" fill="none" xmlns="http://www.w3.org/2000/svg">
<path d="M555.851 0C658.866 0.000261861 742.377 83.5116 742.377 186.527V371.188C742.377 576.19 576.19 742.377 371.188 742.377C166.187 742.377 0 576.19 0 371.188V186.527C0 83.5114 83.5114 0 186.527 0H555.851ZM272.759 156.681C259.067 156.681 247.383 166.583 245.138 180.09L187.85 524.75C185.014 541.813 198.174 557.341 215.471 557.341H245.156C254.033 557.341 262.385 553.131 267.665 545.995L333.504 457.012C338.784 449.876 347.136 445.665 356.013 445.665H404.435C464.015 445.665 508.209 434.236 537.017 411.379C566.479 387.868 581.211 351.623 581.211 302.643C581.211 253.009 567.134 216.111 538.98 191.947C510.827 168.437 465.651 156.681 403.452 156.681H272.759Z" fill="white"/>
<path d="M974.055 453.109V386.891H1062.54C1090.67 386.891 1111.77 381.227 1125.83 369.897C1139.89 358.177 1146.93 339.035 1146.93 312.469C1146.93 289.029 1140.28 271.254 1127 259.143C1114.11 246.642 1093.99 240.391 1066.64 240.391H974.055V175.345H1068.99C1093.99 175.345 1116.45 178.275 1136.38 184.135C1156.69 189.995 1173.88 198.785 1187.95 210.505C1202.4 221.835 1213.34 236.289 1220.76 253.869C1228.18 271.059 1231.9 291.373 1231.9 314.813C1231.9 344.895 1225.06 370.288 1211.39 390.993C1197.71 411.308 1177.4 426.739 1150.44 437.287C1123.88 447.835 1090.67 453.109 1050.82 453.109H974.055ZM914.869 562.105V175.345H999.253V562.105H914.869Z" fill="white"/>
<path d="M1270.88 562.105V143.115H1354.09V562.105H1270.88Z" fill="white"/>
<path d="M1486.19 570.309C1469 570.309 1453.76 566.989 1440.48 560.347C1427.2 553.315 1416.84 543.353 1409.42 530.461C1402 517.569 1398.29 501.552 1398.29 482.409C1398.29 465.611 1401.41 451.547 1407.66 440.217C1414.3 428.888 1423.88 419.707 1436.38 412.675C1448.88 405.643 1464.31 399.783 1482.67 395.095C1501.03 390.407 1521.93 386.305 1545.37 382.789C1557.87 380.836 1568.03 379.078 1575.85 377.515C1584.05 375.562 1590.1 372.632 1594.01 368.725C1597.92 364.428 1599.87 358.373 1599.87 350.559C1599.87 339.621 1595.96 330.245 1588.15 322.431C1580.34 314.618 1568.03 310.711 1551.23 310.711C1539.9 310.711 1529.36 312.665 1519.59 316.571C1510.21 320.478 1502.01 326.338 1494.98 334.151C1488.34 341.965 1483.45 351.927 1480.33 364.037L1405.91 341.183C1410.59 325.166 1417.23 311.297 1425.83 299.577C1434.81 287.857 1445.56 278.091 1458.06 270.277C1470.56 262.073 1484.82 256.018 1500.84 252.111C1516.85 248.205 1534.24 246.251 1552.99 246.251C1583.07 246.251 1607.49 251.135 1626.24 260.901C1645.38 270.277 1659.64 285.123 1669.02 305.437C1678.4 325.361 1683.08 351.145 1683.08 382.789V435.529C1683.08 449.203 1683.28 463.071 1683.67 477.135C1684.45 491.199 1685.23 505.459 1686.01 519.913C1687.19 533.977 1688.36 548.041 1689.53 562.105H1615.11C1613.54 552.339 1611.98 541.205 1610.42 528.703C1609.25 515.811 1608.27 502.919 1607.49 490.027H1596.94C1591.47 504.873 1583.66 518.351 1573.5 530.461C1563.34 542.572 1550.84 552.339 1536 559.761C1521.54 566.793 1504.94 570.309 1486.19 570.309ZM1521.93 509.365C1529.36 509.365 1536.78 507.998 1544.2 505.263C1552.01 502.529 1559.44 498.817 1566.47 494.129C1573.89 489.051 1580.53 482.8 1586.39 475.377C1592.64 467.955 1597.72 459.555 1601.63 450.179L1600.46 400.955L1613.94 403.885C1606.9 408.964 1598.7 413.066 1589.32 416.191C1579.95 418.926 1570.18 421.075 1560.02 422.637C1550.26 424.2 1540.49 425.958 1530.72 427.911C1520.96 429.865 1512.17 432.404 1504.35 435.529C1496.93 438.655 1490.88 442.952 1486.19 448.421C1481.89 453.5 1479.74 460.727 1479.74 470.103C1479.74 482.214 1483.65 491.785 1491.46 498.817C1499.27 505.849 1509.43 509.365 1521.93 509.365Z" fill="white"/>
<path d="M1852.39 570.309C1826.6 570.309 1803.94 563.668 1784.41 550.385C1765.27 537.103 1750.42 518.351 1739.87 494.129C1729.33 469.908 1724.05 441.194 1724.05 407.987C1724.05 376.734 1728.74 348.997 1738.12 324.775C1747.49 300.554 1761.36 281.607 1779.72 267.933C1798.08 254.26 1820.94 247.423 1848.28 247.423C1868.21 247.423 1885.01 251.135 1898.68 258.557C1912.35 265.98 1923.49 276.919 1932.08 291.373C1941.07 305.437 1948.1 322.431 1953.18 342.355H1966.66C1963.92 329.854 1961.38 317.743 1959.04 306.023C1957.09 293.913 1955.52 282.388 1954.35 271.449C1953.18 260.511 1952.59 250.939 1952.59 242.735V143.115H2036.98V562.105H1966.66V473.033H1954.94C1950.64 494.911 1944 513.077 1935.01 527.531C1926.03 541.986 1914.5 552.729 1900.44 559.761C1886.77 566.793 1870.75 570.309 1852.39 570.309ZM1880.51 501.161C1893.41 501.161 1904.35 498.427 1913.33 492.957C1922.32 487.488 1929.74 480.456 1935.6 471.861C1941.46 462.876 1945.76 453.305 1948.49 443.147C1951.23 432.599 1952.59 422.833 1952.59 413.847V402.713C1952.59 395.291 1951.42 387.673 1949.08 379.859C1947.12 371.655 1944.19 363.647 1940.29 355.833C1936.38 348.02 1931.5 341.183 1925.64 335.323C1919.78 329.073 1912.94 324.189 1905.13 320.673C1897.31 317.157 1888.72 315.399 1879.34 315.399C1865.28 315.399 1853.36 319.306 1843.6 327.119C1833.83 334.933 1826.21 345.871 1820.74 359.935C1815.27 373.609 1812.54 389.626 1812.54 407.987C1812.54 426.739 1815.27 443.147 1820.74 457.211C1826.6 471.275 1834.61 482.214 1844.77 490.027C1854.93 497.45 1866.84 501.161 1880.51 501.161Z" fill="white"/>
<path d="M2240.13 570.309C2214.73 570.309 2192.07 566.793 2172.15 559.761C2152.62 552.729 2136.01 542.572 2122.34 529.289C2108.67 516.007 2098.12 499.599 2090.7 480.065C2083.66 460.532 2080.15 438.459 2080.15 413.847C2080.15 389.626 2083.47 367.358 2090.11 347.043C2097.14 326.338 2107.3 308.563 2120.58 293.717C2133.87 278.481 2150.08 266.761 2169.22 258.557C2188.36 250.353 2210.05 246.251 2234.27 246.251C2257.71 246.251 2278.61 250.158 2296.97 257.971C2315.33 265.394 2330.57 276.723 2342.68 291.959C2355.18 307.195 2364.16 325.947 2369.63 348.215C2375.49 370.093 2377.64 395.291 2376.08 423.809L2134.65 426.153V379.859L2327.44 378.101L2297.55 401.541C2300.29 380.836 2298.92 363.842 2293.45 350.559C2287.98 337.277 2279.97 327.51 2269.43 321.259C2259.27 315.009 2247.94 311.883 2235.44 311.883C2220.59 311.883 2207.51 315.79 2196.18 323.603C2184.85 331.417 2176.06 342.941 2169.81 358.177C2163.56 373.023 2160.43 390.993 2160.43 412.089C2160.43 445.296 2167.66 469.713 2182.11 485.339C2196.96 500.966 2216.3 508.779 2240.13 508.779C2251.07 508.779 2260.25 507.412 2267.67 504.677C2275.48 501.552 2281.73 497.645 2286.42 492.957C2291.5 488.269 2295.41 482.995 2298.14 477.135C2301.27 471.275 2303.81 465.415 2305.76 459.555L2379.01 475.377C2375.49 489.832 2370.22 502.919 2363.19 514.639C2356.55 525.969 2347.56 535.931 2336.23 544.525C2324.9 552.729 2311.23 558.98 2295.21 563.277C2279.58 567.965 2261.22 570.309 2240.13 570.309Z" fill="white"/>
<path d="M2420.06 562.105V254.455H2487.45V346.457H2498.58C2504.05 323.799 2511.28 305.242 2520.27 290.787C2529.25 275.942 2540 264.808 2552.5 257.385C2565.39 249.963 2580.43 246.251 2597.62 246.251C2615.98 246.251 2631.22 250.353 2643.33 258.557C2655.44 266.761 2664.81 278.286 2671.45 293.131C2678.1 307.586 2682.39 325.361 2684.35 346.457H2693.72C2699.58 323.408 2707.4 304.461 2717.16 289.615C2727.32 274.77 2739.24 263.831 2752.91 256.799C2766.97 249.767 2782.4 246.251 2799.2 246.251C2816 246.251 2830.65 249.572 2843.15 256.213C2856.04 262.855 2866.79 272.817 2875.38 286.099C2883.98 298.991 2890.42 315.399 2894.72 335.323C2899.02 354.857 2901.17 377.515 2901.17 403.299V562.105H2816.78V413.847C2816.78 392.751 2815.02 375.171 2811.51 361.107C2807.99 346.653 2802.52 335.909 2795.1 328.877C2787.68 321.845 2778.11 318.329 2766.39 318.329C2753.49 318.329 2742.36 322.822 2732.98 331.807C2723.61 340.402 2716.19 352.317 2710.72 367.553C2705.25 382.789 2702.32 400.174 2701.93 419.707V562.105H2619.3V416.191C2619.3 394.314 2617.35 376.343 2613.44 362.279C2609.53 347.825 2603.87 336.886 2596.45 329.463C2589.02 322.041 2579.65 318.329 2568.32 318.329C2555.04 318.329 2543.71 322.822 2534.33 331.807C2524.95 340.402 2517.73 352.513 2512.65 368.139C2507.57 383.766 2504.84 401.151 2504.44 420.293V562.105H2420.06Z" fill="white"/>
<path d="M3072.48 668.757C3056.85 668.757 3040.83 667.195 3024.42 664.069C3008.41 661.335 2993.17 656.842 2978.72 650.591C2964.65 644.731 2952.54 637.113 2942.38 627.737L2966.41 555.659C2978.91 568.551 2994.54 578.123 3013.29 584.373C3032.04 591.015 3050.6 594.335 3068.96 594.335C3089.66 594.335 3106.85 590.038 3120.53 581.443C3134.59 573.239 3145.14 560.543 3152.17 543.353C3159.59 525.773 3163.89 503.896 3165.06 477.721L3168.58 424.395H3155.69C3151.78 450.179 3145.33 471.275 3136.35 487.683C3127.75 504.091 3116.62 516.202 3102.95 524.015C3089.66 531.438 3073.84 535.149 3055.48 535.149C3033.21 535.149 3014.46 529.485 2999.23 518.155C2983.99 506.826 2972.46 489.832 2964.65 467.173C2957.23 444.515 2953.52 416.582 2953.52 383.375V254.455H3037.9V362.865C3037.9 399.197 3042 425.372 3050.21 441.389C3058.41 457.407 3070.91 465.415 3087.71 465.415C3096.7 465.415 3104.9 463.071 3112.32 458.383C3119.75 453.305 3126 446.077 3131.08 436.701C3136.54 427.325 3140.65 415.996 3143.38 402.713C3146.51 389.04 3148.07 373.609 3148.07 356.419V254.455H3232.45V480.651C3232.45 505.263 3230.3 527.727 3226.01 548.041C3221.71 567.965 3215.26 585.35 3206.67 600.195C3198.47 615.431 3187.92 628.128 3175.03 638.285C3162.13 648.443 3147.09 656.061 3129.9 661.139C3113.1 666.218 3093.96 668.757 3072.48 668.757Z" fill="white"/>
</svg>
