<svg width="3233" height="743" viewBox="0 0 3233 743" fill="none" xmlns="http://www.w3.org/2000/svg">
<path d="M555.851 0C658.866 0.000261861 742.377 83.5116 742.377 186.527V371.188C742.377 576.19 576.19 742.377 371.188 742.377C166.187 742.377 0 576.19 0 371.188V186.527C0 83.5114 83.5114 0 186.527 0H555.851ZM272.759 156.681C259.067 156.681 247.383 166.583 245.138 180.09L187.85 524.75C185.014 541.813 198.174 557.341 215.471 557.341H245.156C254.033 557.341 262.385 553.131 267.665 545.995L333.504 457.012C338.784 449.876 347.136 445.665 356.013 445.665H404.435C464.015 445.665 508.209 434.236 537.017 411.379C566.479 387.868 581.211 351.623 581.211 302.643C581.211 253.009 567.134 216.111 538.98 191.947C510.827 168.437 465.651 156.681 403.452 156.681H272.759Z" fill="black"/>
<path d="M974.055 453.108V386.89H1062.54C1090.67 386.89 1111.77 381.226 1125.83 369.896C1139.89 358.176 1146.93 339.034 1146.93 312.468C1146.93 289.028 1140.28 271.253 1127 259.142C1114.11 246.641 1093.99 240.39 1066.64 240.39H974.055V175.344H1068.99C1093.99 175.344 1116.45 178.274 1136.38 184.134C1156.69 189.994 1173.88 198.784 1187.95 210.504C1202.4 221.834 1213.34 236.288 1220.76 253.868C1228.18 271.058 1231.9 291.372 1231.9 314.812C1231.9 344.894 1225.06 370.287 1211.39 390.992C1197.71 411.307 1177.4 426.738 1150.44 437.286C1123.88 447.834 1090.67 453.108 1050.82 453.108H974.055ZM914.869 562.104V175.344H999.253V562.104H914.869Z" fill="black"/>
<path d="M1270.88 562.104V143.114H1354.09V562.104H1270.88Z" fill="black"/>
<path d="M1486.19 570.308C1469 570.308 1453.76 566.988 1440.48 560.346C1427.2 553.314 1416.84 543.352 1409.42 530.46C1402 517.568 1398.29 501.551 1398.29 482.408C1398.29 465.61 1401.41 451.546 1407.66 440.216C1414.3 428.887 1423.88 419.706 1436.38 412.674C1448.88 405.642 1464.31 399.782 1482.67 395.094C1501.03 390.406 1521.93 386.304 1545.37 382.788C1557.87 380.835 1568.03 379.077 1575.85 377.514C1584.05 375.561 1590.1 372.631 1594.01 368.724C1597.92 364.427 1599.87 358.372 1599.87 350.558C1599.87 339.62 1595.96 330.244 1588.15 322.43C1580.34 314.617 1568.03 310.71 1551.23 310.71C1539.9 310.71 1529.36 312.664 1519.59 316.57C1510.21 320.477 1502.01 326.337 1494.98 334.15C1488.34 341.964 1483.45 351.926 1480.33 364.036L1405.91 341.182C1410.59 325.165 1417.23 311.296 1425.83 299.576C1434.81 287.856 1445.56 278.09 1458.06 270.276C1470.56 262.072 1484.82 256.017 1500.84 252.11C1516.85 248.204 1534.24 246.25 1552.99 246.25C1583.07 246.25 1607.49 251.134 1626.24 260.9C1645.38 270.276 1659.64 285.122 1669.02 305.436C1678.4 325.36 1683.08 351.144 1683.08 382.788V435.528C1683.08 449.202 1683.28 463.07 1683.67 477.134C1684.45 491.198 1685.23 505.458 1686.01 519.912C1687.19 533.976 1688.36 548.04 1689.53 562.104H1615.11C1613.54 552.338 1611.98 541.204 1610.42 528.702C1609.25 515.81 1608.27 502.918 1607.49 490.026H1596.94C1591.47 504.872 1583.66 518.35 1573.5 530.46C1563.34 542.571 1550.84 552.338 1536 559.76C1521.54 566.792 1504.94 570.308 1486.19 570.308ZM1521.93 509.364C1529.36 509.364 1536.78 507.997 1544.2 505.262C1552.01 502.528 1559.44 498.816 1566.47 494.128C1573.89 489.05 1580.53 482.799 1586.39 475.376C1592.64 467.954 1597.72 459.554 1601.63 450.178L1600.46 400.954L1613.94 403.884C1606.9 408.963 1598.7 413.065 1589.32 416.19C1579.95 418.925 1570.18 421.074 1560.02 422.636C1550.26 424.199 1540.49 425.957 1530.72 427.91C1520.96 429.864 1512.17 432.403 1504.35 435.528C1496.93 438.654 1490.88 442.951 1486.19 448.42C1481.89 453.499 1479.74 460.726 1479.74 470.102C1479.74 482.213 1483.65 491.784 1491.46 498.816C1499.27 505.848 1509.43 509.364 1521.93 509.364Z" fill="black"/>
<path d="M1852.39 570.308C1826.6 570.308 1803.94 563.667 1784.41 550.384C1765.27 537.102 1750.42 518.35 1739.87 494.128C1729.33 469.907 1724.05 441.193 1724.05 407.986C1724.05 376.733 1728.74 348.996 1738.12 324.774C1747.49 300.553 1761.36 281.606 1779.72 267.932C1798.08 254.259 1820.94 247.422 1848.28 247.422C1868.21 247.422 1885.01 251.134 1898.68 258.556C1912.35 265.979 1923.49 276.918 1932.08 291.372C1941.07 305.436 1948.1 322.43 1953.18 342.354H1966.66C1963.92 329.853 1961.38 317.742 1959.04 306.022C1957.09 293.912 1955.52 282.387 1954.35 271.448C1953.18 260.51 1952.59 250.938 1952.59 242.734V143.114H2036.98V562.104H1966.66V473.032H1954.94C1950.64 494.91 1944 513.076 1935.01 527.53C1926.03 541.985 1914.5 552.728 1900.44 559.76C1886.77 566.792 1870.75 570.308 1852.39 570.308ZM1880.51 501.16C1893.41 501.16 1904.35 498.426 1913.33 492.956C1922.32 487.487 1929.74 480.455 1935.6 471.86C1941.46 462.875 1945.76 453.304 1948.49 443.146C1951.23 432.598 1952.59 422.832 1952.59 413.846V402.712C1952.59 395.29 1951.42 387.672 1949.08 379.858C1947.12 371.654 1944.19 363.646 1940.29 355.832C1936.38 348.019 1931.5 341.182 1925.64 335.322C1919.78 329.072 1912.94 324.188 1905.13 320.672C1897.31 317.156 1888.72 315.398 1879.34 315.398C1865.28 315.398 1853.36 319.305 1843.6 327.118C1833.83 334.932 1826.21 345.87 1820.74 359.934C1815.27 373.608 1812.54 389.625 1812.54 407.986C1812.54 426.738 1815.27 443.146 1820.74 457.21C1826.6 471.274 1834.61 482.213 1844.77 490.026C1854.93 497.449 1866.84 501.16 1880.51 501.16Z" fill="black"/>
<path d="M2240.13 570.308C2214.73 570.308 2192.07 566.792 2172.15 559.76C2152.62 552.728 2136.01 542.571 2122.34 529.288C2108.67 516.006 2098.12 499.598 2090.7 480.064C2083.66 460.531 2080.15 438.458 2080.15 413.846C2080.15 389.625 2083.47 367.357 2090.11 347.042C2097.14 326.337 2107.3 308.562 2120.58 293.716C2133.87 278.48 2150.08 266.76 2169.22 258.556C2188.36 250.352 2210.05 246.25 2234.27 246.25C2257.71 246.25 2278.61 250.157 2296.97 257.97C2315.33 265.393 2330.57 276.722 2342.68 291.958C2355.18 307.194 2364.16 325.946 2369.63 348.214C2375.49 370.092 2377.64 395.29 2376.08 423.808L2134.65 426.152V379.858L2327.44 378.1L2297.55 401.54C2300.29 380.835 2298.92 363.841 2293.45 350.558C2287.98 337.276 2279.97 327.509 2269.43 321.258C2259.27 315.008 2247.94 311.882 2235.44 311.882C2220.59 311.882 2207.51 315.789 2196.18 323.602C2184.85 331.416 2176.06 342.94 2169.81 358.176C2163.56 373.022 2160.43 390.992 2160.43 412.088C2160.43 445.295 2167.66 469.712 2182.11 485.338C2196.96 500.965 2216.3 508.778 2240.13 508.778C2251.07 508.778 2260.25 507.411 2267.67 504.676C2275.48 501.551 2281.73 497.644 2286.42 492.956C2291.5 488.268 2295.41 482.994 2298.14 477.134C2301.27 471.274 2303.81 465.414 2305.76 459.554L2379.01 475.376C2375.49 489.831 2370.22 502.918 2363.19 514.638C2356.55 525.968 2347.56 535.93 2336.23 544.524C2324.9 552.728 2311.23 558.979 2295.21 563.276C2279.58 567.964 2261.22 570.308 2240.13 570.308Z" fill="black"/>
<path d="M2420.06 562.104V254.454H2487.45V346.456H2498.58C2504.05 323.798 2511.28 305.241 2520.27 290.786C2529.25 275.941 2540 264.807 2552.5 257.384C2565.39 249.962 2580.43 246.25 2597.62 246.25C2615.98 246.25 2631.22 250.352 2643.33 258.556C2655.44 266.76 2664.81 278.285 2671.45 293.13C2678.1 307.585 2682.39 325.36 2684.35 346.456H2693.72C2699.58 323.407 2707.4 304.46 2717.16 289.614C2727.32 274.769 2739.24 263.83 2752.91 256.798C2766.97 249.766 2782.4 246.25 2799.2 246.25C2816 246.25 2830.65 249.571 2843.15 256.212C2856.04 262.854 2866.79 272.816 2875.38 286.098C2883.98 298.99 2890.42 315.398 2894.72 335.322C2899.02 354.856 2901.17 377.514 2901.17 403.298V562.104H2816.78V413.846C2816.78 392.75 2815.02 375.17 2811.51 361.106C2807.99 346.652 2802.52 335.908 2795.1 328.876C2787.68 321.844 2778.11 318.328 2766.39 318.328C2753.49 318.328 2742.36 322.821 2732.98 331.806C2723.61 340.401 2716.19 352.316 2710.72 367.552C2705.25 382.788 2702.32 400.173 2701.93 419.706V562.104H2619.3V416.19C2619.3 394.313 2617.35 376.342 2613.44 362.278C2609.53 347.824 2603.87 336.885 2596.45 329.462C2589.02 322.04 2579.65 318.328 2568.32 318.328C2555.04 318.328 2543.71 322.821 2534.33 331.806C2524.95 340.401 2517.73 352.512 2512.65 368.138C2507.57 383.765 2504.84 401.15 2504.44 420.292V562.104H2420.06Z" fill="black"/>
<path d="M3072.48 668.756C3056.85 668.756 3040.83 667.194 3024.42 664.068C3008.41 661.334 2993.17 656.841 2978.72 650.59C2964.65 644.73 2952.54 637.112 2942.38 627.736L2966.41 555.658C2978.91 568.55 2994.54 578.122 3013.29 584.372C3032.04 591.014 3050.6 594.334 3068.96 594.334C3089.66 594.334 3106.85 590.037 3120.53 581.442C3134.59 573.238 3145.14 560.542 3152.17 543.352C3159.59 525.772 3163.89 503.895 3165.06 477.72L3168.58 424.394H3155.69C3151.78 450.178 3145.33 471.274 3136.35 487.682C3127.75 504.09 3116.62 516.201 3102.95 524.014C3089.66 531.437 3073.84 535.148 3055.48 535.148C3033.21 535.148 3014.46 529.484 2999.23 518.154C2983.99 506.825 2972.46 489.831 2964.65 467.172C2957.23 444.514 2953.52 416.581 2953.52 383.374V254.454H3037.9V362.864C3037.9 399.196 3042 425.371 3050.21 441.388C3058.41 457.406 3070.91 465.414 3087.71 465.414C3096.7 465.414 3104.9 463.07 3112.32 458.382C3119.75 453.304 3126 446.076 3131.08 436.7C3136.54 427.324 3140.65 415.995 3143.38 402.712C3146.51 389.039 3148.07 373.608 3148.07 356.418V254.454H3232.45V480.65C3232.45 505.262 3230.3 527.726 3226.01 548.04C3221.71 567.964 3215.26 585.349 3206.67 600.194C3198.47 615.43 3187.92 628.127 3175.03 638.284C3162.13 648.442 3147.09 656.06 3129.9 661.138C3113.1 666.217 3093.96 668.756 3072.48 668.756Z" fill="black"/>
</svg>
