<svg width="1857" height="352" viewBox="0 0 1857 352" fill="none" xmlns="http://www.w3.org/2000/svg">
<path d="M528.664 281C522.037 281 516.664 275.627 516.664 269V63.3996C516.664 56.7722 522.037 51.3996 528.664 51.3996H631.792C646.88 51.3996 660.109 54.461 671.48 60.5836C683.069 66.7063 692.144 75.2343 698.704 86.1676C705.264 96.8823 708.544 109.346 708.544 123.56C708.544 137.117 705.264 149.253 698.704 159.968C692.144 170.682 683.069 179.101 671.48 185.224C659.891 191.346 646.661 194.408 631.792 194.408H576.224C569.597 194.408 564.224 199.78 564.224 206.408V269C564.224 275.627 558.851 281 552.224 281H528.664ZM564.224 143.048C564.224 149.675 569.597 155.048 576.224 155.048H626.544C636.821 155.048 645.021 152.205 651.144 146.52C657.485 140.834 660.656 133.29 660.656 123.888C660.656 114.266 657.485 106.613 651.144 100.928C645.021 95.2423 636.821 92.3996 626.544 92.3996H576.224C569.597 92.3996 564.224 97.7722 564.224 104.4V143.048Z" fill="white"/>
<path d="M748.97 281C742.342 281 736.97 275.627 736.97 269V61.553C736.97 55.6923 741.203 50.6889 746.983 49.7186L767.919 46.2038C775.238 44.9751 781.906 50.6171 781.906 58.0382V269C781.906 275.627 776.533 281 769.906 281H748.97Z" fill="white"/>
<path d="M871.496 283.952C859.251 283.952 848.427 281.765 839.024 277.392C829.621 272.8 822.296 266.568 817.048 258.696C811.8 250.824 809.176 241.749 809.176 231.472C809.176 215.072 815.299 202.389 827.544 193.424C840.008 184.24 857.064 179.648 878.712 179.648C889.152 179.648 899.16 180.779 908.737 183.043C914.666 184.444 920.696 187.5 920.696 174.072C920.696 164.232 917.635 156.797 911.512 151.768C905.389 146.738 896.424 144.224 884.616 144.224C877.4 144.224 869.637 145.426 861.328 147.832C855.814 149.283 849.722 151.312 843.052 153.918C837.076 156.254 830.222 153.799 827.375 148.048L821.58 136.343C818.566 130.253 821.193 122.847 827.505 120.334C836.928 116.582 846.016 113.612 854.768 111.424C867.232 108.362 879.696 106.832 892.16 106.832C915.12 106.832 932.941 112.408 945.624 123.56C958.525 134.493 964.976 150.018 964.976 170.136V269C964.976 275.627 959.603 281 952.976 281H924.741C922.507 281 920.696 279.188 920.696 276.954C920.696 273.621 916.844 271.663 913.978 273.366C908.932 276.364 903.627 278.69 898.064 280.344C889.973 282.749 881.117 283.952 871.496 283.952ZM851.816 230.488C851.816 237.048 854.659 242.296 860.344 246.232C866.029 249.949 873.573 251.808 882.976 251.808C890.411 251.808 897.299 250.933 903.64 249.184C907.941 247.849 911.94 246.112 915.637 243.973C918.932 242.066 920.696 238.41 920.696 234.603V223.852C920.696 218.945 917.728 214.459 913.025 213.061C909.961 212.15 906.832 211.399 903.64 210.808C897.736 209.714 891.395 209.168 884.616 209.168C874.339 209.168 866.248 211.136 860.344 215.072C854.659 218.789 851.816 223.928 851.816 230.488Z" fill="white"/>
<path d="M1078.03 283.296C1061.85 283.296 1047.2 279.36 1034.08 271.488C1020.96 263.616 1010.47 253.12 1002.59 240C994.94 226.661 991.113 211.792 991.113 195.392C991.113 178.992 994.94 164.232 1002.59 151.112C1010.47 137.773 1021.07 127.277 1034.41 119.624C1047.75 111.752 1062.73 107.816 1079.35 107.816C1087.87 107.816 1096.07 109.018 1103.95 111.424C1104.64 111.616 1105.32 111.816 1106.01 112.025C1115.09 114.805 1125.92 122 1125.92 99.241V61.553C1125.92 55.6923 1130.15 50.6889 1135.93 49.7186L1156.87 46.2038C1164.19 44.9751 1170.86 50.6171 1170.86 58.0382V269C1170.86 275.627 1165.48 281 1158.86 281H1131.2C1128.65 281 1126.58 278.929 1126.58 276.376C1126.58 272.523 1122.08 270.287 1118.78 272.283C1106.67 279.625 1093.09 283.296 1078.03 283.296ZM1085.25 244.92C1093.56 244.92 1101.1 243.608 1107.88 240.984C1113.4 238.742 1118.3 235.685 1122.6 231.813C1124.83 229.797 1125.92 226.849 1125.92 223.839V166.906C1125.92 163.724 1124.7 160.619 1122.24 158.596C1118.03 155.13 1113.25 152.307 1107.88 150.128C1100.88 147.285 1093.34 145.864 1085.25 145.864C1075.85 145.864 1067.32 148.05 1059.67 152.424C1052.23 156.578 1046.33 162.482 1041.95 170.136C1037.58 177.57 1035.39 185.989 1035.39 195.392C1035.39 204.794 1037.58 213.213 1041.95 220.648C1046.33 228.082 1052.23 233.986 1059.67 238.36C1067.32 242.733 1075.85 244.92 1085.25 244.92Z" fill="white"/>
<path d="M1289.55 284.28C1272.49 284.28 1256.97 280.344 1242.97 272.472C1229.2 264.6 1218.26 253.994 1210.17 240.656C1202.08 227.317 1198.04 212.338 1198.04 195.72C1198.04 179.101 1201.86 164.122 1209.52 150.784C1217.39 137.445 1227.99 126.84 1241.33 118.968C1254.67 111.096 1269.54 107.16 1285.94 107.16C1302.34 107.16 1316.88 111.205 1329.56 119.296C1342.25 127.386 1352.2 138.32 1359.41 152.096C1366.85 165.872 1370.56 181.506 1370.56 199C1370.56 205.521 1365.28 210.808 1358.76 210.808H1259.93C1251.94 210.808 1241.85 212 1250.62 225.265C1251.5 226.604 1252.45 227.907 1253.47 229.176C1258.06 234.642 1263.64 238.906 1270.2 241.968C1276.97 245.029 1284.19 246.56 1291.84 246.56C1299.5 246.56 1306.49 245.357 1312.84 242.952C1315.59 241.941 1318.18 240.755 1320.59 239.397C1326.07 236.303 1333.17 236.071 1337.83 240.312L1348.78 250.289C1354.2 255.232 1353.98 263.904 1347.81 267.875C1340.88 272.333 1333.81 275.833 1326.61 278.376C1315.68 282.312 1303.32 284.28 1289.55 284.28ZM1248.98 164.439C1242.5 177.5 1250.86 178.664 1258.67 178.664H1311.27C1318.97 178.664 1327.15 175.056 1320.6 164.851C1319.73 163.498 1318.78 162.198 1317.76 160.952C1313.82 155.704 1309.01 151.658 1303.32 148.816C1297.86 145.754 1291.73 144.224 1284.96 144.224C1277.96 144.224 1271.62 145.645 1265.93 148.488C1260.25 151.33 1255.44 155.376 1251.5 160.624C1250.6 161.838 1249.76 163.11 1248.98 164.439Z" fill="white"/>
<path d="M1410.09 281C1403.47 281 1398.09 275.627 1398.09 269V122.112C1398.09 115.484 1403.47 110.112 1410.09 110.112H1431.97C1434.21 110.112 1440.74 109.5 1443.03 114.169C1444.17 116.5 1447.27 119.625 1450.18 117.67C1460.93 110.445 1473.42 106.832 1487.64 106.832C1498.79 106.832 1508.74 109.128 1517.49 113.72C1521.53 115.74 1525.24 118.156 1528.63 120.97C1534.68 126 1544.1 126.439 1550.31 121.598C1554.48 118.353 1558.95 115.617 1563.73 113.392C1573.36 109.018 1583.96 106.832 1595.55 106.832C1608.45 106.832 1619.71 109.784 1629.33 115.688C1639.17 121.373 1646.83 129.354 1652.29 139.632C1657.98 149.69 1660.82 161.498 1660.82 175.056V269C1660.82 275.627 1655.45 281 1648.82 281H1628.21C1621.59 281 1616.21 275.627 1616.21 269V181.616C1616.21 170.464 1613.26 161.717 1607.36 155.376C1601.45 148.816 1593.58 145.536 1583.74 145.536C1576.96 145.536 1570.73 146.957 1565.05 149.8C1560.79 152.013 1557 155.088 1553.67 159.025C1551.8 161.236 1551.12 164.177 1551.44 167.055C1551.49 167.535 1551.55 168.015 1551.6 168.496C1551.82 170.464 1551.93 172.65 1551.93 175.056V269C1551.93 275.627 1546.55 281 1539.93 281H1518.99C1512.36 281 1506.99 275.627 1506.99 269V181.616C1506.99 170.464 1504.04 161.717 1498.13 155.376C1492.45 148.816 1484.69 145.536 1474.85 145.536C1468.07 145.536 1461.95 146.848 1456.48 149.472C1452.29 151.566 1448.59 154.497 1445.37 158.264C1443.76 160.155 1443.03 162.614 1443.03 165.099V269C1443.03 275.627 1437.66 281 1431.03 281H1410.09Z" fill="white"/>
<path d="M1695.55 351.52C1691.61 351.52 1687.79 351.301 1684.07 350.864C1678.92 350.542 1675.21 346.127 1675.21 340.964V325.813C1675.21 318.241 1682.2 312.41 1689.77 312.482C1690.16 312.486 1690.56 312.488 1690.96 312.488C1707.36 312.488 1731.5 309.5 1738.07 289.2L1738.94 287.018C1740.07 284.204 1740.09 281.068 1739 278.24L1680.41 126.432C1677.37 118.57 1683.18 110.112 1691.6 110.112H1715.25C1720.29 110.112 1724.79 113.256 1726.52 117.985L1755.7 197.655C1765 218.5 1767.5 222 1778.05 198.119L1811.43 117.521C1813.28 113.036 1817.66 110.112 1822.51 110.112H1844.88C1853.48 110.112 1859.29 118.902 1855.92 126.817L1784.32 294.776C1778.41 308.552 1771.96 319.594 1764.97 327.904C1757.97 336.213 1749.88 342.226 1740.69 345.944C1731.73 349.661 1708.01 351.52 1695.55 351.52Z" fill="white"/>
<path fill-rule="evenodd" clip-rule="evenodd" d="M88.4422 0C39.5969 0 0 39.5969 0 88.4422V176C0 273.202 78.7979 352 176 352C273.202 352 352 273.202 352 176V88.4422C352 39.5969 312.403 0 263.558 0H88.4422ZM114.187 97.6999C116.432 84.1931 128.116 74.291 141.808 74.291H191.299C220.79 74.291 242.211 79.8648 255.56 91.0124C268.909 102.47 275.583 119.965 275.583 143.499C275.583 166.723 268.598 183.909 254.628 195.057C240.969 205.895 220.014 211.314 191.764 211.314H176.227C167.349 211.314 158.998 215.523 153.718 222.66L129.421 255.498C125.341 261.012 118.888 264.265 112.029 264.265C98.6638 264.265 88.4955 252.267 90.6869 239.083L114.187 97.6999Z" fill="white"/>
</svg>
