<svg width="594" height="149" viewBox="0 0 594 149" fill="none" xmlns="http://www.w3.org/2000/svg">
<path d="M0 16.5556C0 7.41217 7.41218 0 16.5556 0H132.444C141.588 0 149 7.41218 149 16.5556V74.5C149 115.645 115.645 149 74.5 149V149C33.3548 149 0 115.645 0 74.5V16.5556Z" fill="#00F6CA"/>
<path d="M208.048 65.44C203.152 65.44 199.024 64.672 195.664 63.136C192.352 61.6 189.832 59.512 188.104 56.872C186.424 54.184 185.584 51.112 185.584 47.656H198.544C198.544 48.904 198.88 50.056 199.552 51.112C200.272 52.12 201.328 52.912 202.72 53.488C204.112 54.064 205.888 54.352 208.048 54.352C209.92 54.352 211.504 54.112 212.8 53.632C214.144 53.152 215.152 52.48 215.824 51.616C216.544 50.752 216.904 49.72 216.904 48.52C216.904 46.984 216.256 45.808 214.96 44.992C213.664 44.128 211.48 43.576 208.408 43.336L205.024 43.048C199.6 42.568 195.28 40.864 192.064 37.936C188.848 35.008 187.24 31.12 187.24 26.272C187.24 22.816 188.032 19.864 189.616 17.416C191.248 14.968 193.528 13.096 196.456 11.8C199.384 10.504 202.84 9.856 206.824 9.856C211.144 9.856 214.792 10.576 217.768 12.016C220.792 13.456 223.096 15.496 224.68 18.136C226.264 20.728 227.056 23.752 227.056 27.208H214.096C214.096 26.056 213.808 25 213.232 24.04C212.656 23.08 211.816 22.336 210.712 21.808C209.656 21.232 208.36 20.944 206.824 20.944C205.384 20.944 204.16 21.184 203.152 21.664C202.192 22.096 201.448 22.72 200.92 23.536C200.44 24.352 200.2 25.264 200.2 26.272C200.2 27.616 200.656 28.768 201.568 29.728C202.48 30.688 204.064 31.264 206.32 31.456L209.704 31.744C213.64 32.08 217.12 32.944 220.144 34.336C223.168 35.68 225.544 37.528 227.272 39.88C229 42.232 229.864 45.112 229.864 48.52C229.864 51.928 228.976 54.904 227.2 57.448C225.472 59.992 222.976 61.96 219.712 63.352C216.496 64.744 212.608 65.44 208.048 65.44ZM253.421 65.44C250.061 65.44 247.085 64.864 244.493 63.712C241.901 62.56 239.717 61 237.941 59.032C236.165 57.064 234.797 54.856 233.837 52.408C232.925 49.96 232.469 47.44 232.469 44.848V43.408C232.469 40.72 232.925 38.152 233.837 35.704C234.797 33.208 236.141 31 237.869 29.08C239.645 27.16 241.805 25.648 244.349 24.544C246.893 23.392 249.773 22.816 252.989 22.816C257.261 22.816 260.885 23.776 263.861 25.696C266.837 27.616 269.117 30.16 270.701 33.328C272.285 36.448 273.077 39.856 273.077 43.552V47.728H237.941V40.672H265.517L260.981 43.84C260.981 41.584 260.669 39.688 260.045 38.152C259.469 36.568 258.581 35.368 257.381 34.552C256.229 33.736 254.765 33.328 252.989 33.328C251.261 33.328 249.749 33.736 248.453 34.552C247.205 35.32 246.245 36.52 245.573 38.152C244.901 39.736 244.565 41.752 244.565 44.2C244.565 46.408 244.877 48.328 245.501 49.96C246.125 51.544 247.085 52.768 248.381 53.632C249.677 54.496 251.357 54.928 253.421 54.928C255.245 54.928 256.733 54.616 257.885 53.992C259.085 53.368 259.925 52.528 260.405 51.472H272.357C271.781 54.16 270.629 56.56 268.901 58.672C267.221 60.784 265.061 62.44 262.421 63.64C259.829 64.84 256.829 65.44 253.421 65.44ZM296.688 65.44C293.232 65.44 290.232 64.888 287.688 63.784C285.144 62.632 283.008 61.096 281.28 59.176C279.6 57.256 278.328 55.072 277.464 52.624C276.648 50.176 276.24 47.632 276.24 44.992V43.552C276.24 40.768 276.672 38.128 277.536 35.632C278.448 33.136 279.768 30.928 281.496 29.008C283.224 27.088 285.36 25.576 287.904 24.472C290.448 23.368 293.376 22.816 296.688 22.816C300.336 22.816 303.552 23.536 306.336 24.976C309.12 26.416 311.328 28.408 312.96 30.952C314.64 33.448 315.576 36.328 315.768 39.592H302.952C302.808 38.008 302.208 36.664 301.152 35.56C300.144 34.456 298.656 33.904 296.688 33.904C295.008 33.904 293.616 34.336 292.512 35.2C291.456 36.064 290.664 37.264 290.136 38.8C289.608 40.336 289.344 42.16 289.344 44.272C289.344 46.24 289.56 47.992 289.992 49.528C290.472 51.064 291.24 52.264 292.296 53.128C293.4 53.944 294.864 54.352 296.688 54.352C298.032 54.352 299.16 54.112 300.072 53.632C300.984 53.152 301.704 52.48 302.232 51.616C302.76 50.704 303.096 49.648 303.24 48.448H316.056C315.864 51.808 314.904 54.76 313.176 57.304C311.496 59.848 309.24 61.84 306.408 63.28C303.576 64.72 300.336 65.44 296.688 65.44ZM334.58 65.296C330.068 65.296 326.564 63.832 324.068 60.904C321.62 57.928 320.396 53.392 320.396 47.296V24.256H333.5V47.656C333.5 49.432 334.028 50.872 335.084 51.976C336.14 53.08 337.556 53.632 339.332 53.632C341.108 53.632 342.548 53.08 343.652 51.976C344.756 50.872 345.308 49.384 345.308 47.512V24.256H358.412V64H348.044V47.296H348.764C348.764 51.376 348.236 54.76 347.18 57.448C346.172 60.088 344.66 62.056 342.644 63.352C340.628 64.648 338.132 65.296 335.156 65.296H334.58ZM366.648 64V24.256H377.016V41.536H376.872C376.872 35.968 378.024 31.6 380.328 28.432C382.68 25.264 386.04 23.68 390.408 23.68H391.992V34.912H388.968C386.04 34.912 383.76 35.704 382.128 37.288C380.544 38.872 379.752 41.152 379.752 44.128V64H366.648ZM414.231 65.44C410.871 65.44 407.895 64.864 405.303 63.712C402.711 62.56 400.527 61 398.751 59.032C396.975 57.064 395.607 54.856 394.647 52.408C393.735 49.96 393.279 47.44 393.279 44.848V43.408C393.279 40.72 393.735 38.152 394.647 35.704C395.607 33.208 396.951 31 398.679 29.08C400.455 27.16 402.615 25.648 405.159 24.544C407.703 23.392 410.583 22.816 413.799 22.816C418.071 22.816 421.695 23.776 424.671 25.696C427.647 27.616 429.927 30.16 431.511 33.328C433.095 36.448 433.887 39.856 433.887 43.552V47.728H398.751V40.672H426.327L421.791 43.84C421.791 41.584 421.479 39.688 420.855 38.152C420.279 36.568 419.391 35.368 418.191 34.552C417.039 33.736 415.575 33.328 413.799 33.328C412.071 33.328 410.559 33.736 409.263 34.552C408.015 35.32 407.055 36.52 406.383 38.152C405.711 39.736 405.375 41.752 405.375 44.2C405.375 46.408 405.687 48.328 406.311 49.96C406.935 51.544 407.895 52.768 409.191 53.632C410.487 54.496 412.167 54.928 414.231 54.928C416.055 54.928 417.543 54.616 418.695 53.992C419.895 53.368 420.735 52.528 421.215 51.472H433.167C432.591 54.16 431.439 56.56 429.711 58.672C428.031 60.784 425.871 62.44 423.231 63.64C420.639 64.84 417.639 65.44 414.231 65.44ZM455.698 65.296C452.914 65.296 450.37 64.792 448.066 63.784C445.81 62.776 443.842 61.384 442.162 59.608C440.53 57.784 439.258 55.648 438.346 53.2C437.482 50.752 437.05 48.088 437.05 45.208V43.48C437.05 40.6 437.458 37.936 438.274 35.488C439.138 32.992 440.362 30.832 441.946 29.008C443.53 27.136 445.45 25.696 447.706 24.688C449.962 23.632 452.482 23.104 455.266 23.104C458.482 23.104 461.218 23.824 463.474 25.264C465.778 26.656 467.53 28.696 468.73 31.384C469.978 34.072 470.65 37.336 470.746 41.176L467.722 38.944V11.44H480.826V64H470.458V47.872H471.898C471.802 51.424 471.082 54.52 469.738 57.16C468.394 59.752 466.522 61.768 464.122 63.208C461.77 64.6 458.962 65.296 455.698 65.296ZM459.226 54.496C460.81 54.496 462.25 54.136 463.546 53.416C464.89 52.696 465.97 51.64 466.786 50.248C467.602 48.856 468.01 47.176 468.01 45.208V42.76C468.01 40.84 467.578 39.232 466.714 37.936C465.898 36.64 464.818 35.656 463.474 34.984C462.178 34.264 460.762 33.904 459.226 33.904C457.498 33.904 455.938 34.36 454.546 35.272C453.202 36.136 452.122 37.36 451.306 38.944C450.538 40.48 450.154 42.28 450.154 44.344C450.154 46.408 450.538 48.208 451.306 49.744C452.122 51.232 453.202 52.408 454.546 53.272C455.938 54.088 457.498 54.496 459.226 54.496ZM189.472 129V76.44H202.864V129H189.472ZM211.64 129V89.256H222.008V106.32H221.432C221.432 102.192 221.96 98.784 223.016 96.096C224.072 93.36 225.632 91.32 227.696 89.976C229.808 88.632 232.352 87.96 235.328 87.96H235.904C240.416 87.96 243.896 89.472 246.344 92.496C248.84 95.472 250.088 100.056 250.088 106.248V129H236.984V105.888C236.984 104.064 236.432 102.576 235.328 101.424C234.272 100.224 232.808 99.624 230.936 99.624C229.064 99.624 227.552 100.224 226.4 101.424C225.296 102.576 224.744 104.112 224.744 106.032V129H211.64ZM276.386 129.576C272.066 129.576 268.61 129.048 266.018 127.992C263.474 126.936 261.626 125.184 260.474 122.736C259.322 120.288 258.746 116.976 258.746 112.8L258.818 78.888H270.914L270.842 113.16C270.842 114.936 271.298 116.304 272.21 117.264C273.17 118.176 274.538 118.632 276.314 118.632H281.786V129.576H276.386ZM252.986 98.76V89.256H281.786V98.76H252.986ZM305.877 130.44C302.517 130.44 299.541 129.864 296.949 128.712C294.357 127.56 292.173 126 290.397 124.032C288.621 122.064 287.253 119.856 286.293 117.408C285.381 114.96 284.925 112.44 284.925 109.848V108.408C284.925 105.72 285.381 103.152 286.293 100.704C287.253 98.208 288.597 96 290.325 94.08C292.101 92.16 294.261 90.648 296.805 89.544C299.349 88.392 302.229 87.816 305.445 87.816C309.717 87.816 313.341 88.776 316.317 90.696C319.293 92.616 321.573 95.16 323.157 98.328C324.741 101.448 325.533 104.856 325.533 108.552V112.728H290.397V105.672H317.973L313.437 108.84C313.437 106.584 313.125 104.688 312.501 103.152C311.925 101.568 311.037 100.368 309.837 99.552C308.685 98.736 307.221 98.328 305.445 98.328C303.717 98.328 302.205 98.736 300.909 99.552C299.661 100.32 298.701 101.52 298.029 103.152C297.357 104.736 297.021 106.752 297.021 109.2C297.021 111.408 297.333 113.328 297.957 114.96C298.581 116.544 299.541 117.768 300.837 118.632C302.133 119.496 303.813 119.928 305.877 119.928C307.701 119.928 309.189 119.616 310.341 118.992C311.541 118.368 312.381 117.528 312.861 116.472H324.813C324.237 119.16 323.085 121.56 321.357 123.672C319.677 125.784 317.517 127.44 314.877 128.64C312.285 129.84 309.285 130.44 305.877 130.44ZM346.912 144.912C344.944 144.912 342.904 144.84 340.792 144.696C338.728 144.552 336.856 144.36 335.176 144.12V133.176C336.856 133.368 338.728 133.536 340.792 133.68C342.856 133.872 344.752 133.968 346.48 133.968C349.456 133.968 351.88 133.656 353.752 133.032C355.672 132.408 357.088 131.448 358 130.152C358.912 128.856 359.368 127.2 359.368 125.184V117.12L361.384 112.8C361.288 116.16 360.64 119.088 359.44 121.584C358.24 124.032 356.512 125.928 354.256 127.272C352.048 128.616 349.36 129.288 346.192 129.288C343.504 129.288 341.08 128.808 338.92 127.848C336.76 126.888 334.912 125.544 333.376 123.816C331.888 122.04 330.736 119.952 329.92 117.552C329.104 115.152 328.696 112.536 328.696 109.704V107.976C328.696 105.144 329.128 102.528 329.992 100.128C330.856 97.68 332.104 95.568 333.736 93.792C335.368 91.968 337.288 90.576 339.496 89.616C341.752 88.608 344.248 88.104 346.984 88.104C350.152 88.104 352.888 88.824 355.192 90.264C357.496 91.656 359.296 93.696 360.592 96.384C361.888 99.072 362.584 102.336 362.68 106.176L361.24 106.68V89.256H371.608V124.32C371.608 129.216 370.696 133.176 368.872 136.2C367.048 139.224 364.288 141.432 360.592 142.824C356.944 144.216 352.384 144.912 346.912 144.912ZM350.584 118.488C352.168 118.488 353.584 118.128 354.832 117.408C356.128 116.688 357.16 115.656 357.928 114.312C358.696 112.92 359.08 111.264 359.08 109.344V107.616C359.08 105.744 358.672 104.16 357.856 102.864C357.088 101.568 356.056 100.584 354.76 99.912C353.464 99.24 352.072 98.904 350.584 98.904C348.856 98.904 347.32 99.312 345.976 100.128C344.68 100.944 343.648 102.096 342.88 103.584C342.16 105.072 341.8 106.824 341.8 108.84C341.8 110.856 342.16 112.584 342.88 114.024C343.648 115.464 344.68 116.568 345.976 117.336C347.32 118.104 348.856 118.488 350.584 118.488ZM379.271 129V89.256H389.639V106.536H389.495C389.495 100.968 390.647 96.6 392.951 93.432C395.303 90.264 398.663 88.68 403.031 88.68H404.615V99.912H401.591C398.663 99.912 396.383 100.704 394.751 102.288C393.167 103.872 392.375 106.152 392.375 109.128V129H379.271ZM432.113 129V117.336H429.953V104.88C429.953 103.056 429.521 101.712 428.657 100.848C427.841 99.936 426.473 99.48 424.553 99.48C423.641 99.48 422.297 99.504 420.521 99.552C418.745 99.6 416.873 99.672 414.905 99.768C412.937 99.864 411.137 99.96 409.505 100.056V89.112C410.657 89.016 412.025 88.92 413.609 88.824C415.193 88.728 416.825 88.656 418.505 88.608C420.233 88.56 421.817 88.536 423.257 88.536C427.337 88.536 430.793 89.136 433.625 90.336C436.505 91.536 438.689 93.336 440.177 95.736C441.713 98.136 442.481 101.184 442.481 104.88V129H432.113ZM419.513 130.008C416.729 130.008 414.257 129.504 412.097 128.496C409.937 127.488 408.233 126.048 406.985 124.176C405.785 122.256 405.185 119.976 405.185 117.336C405.185 114.36 405.977 111.96 407.561 110.136C409.145 108.264 411.329 106.896 414.113 106.032C416.897 105.168 420.089 104.736 423.689 104.736H431.393V111.504H423.689C421.913 111.504 420.545 111.96 419.585 112.872C418.625 113.736 418.145 114.912 418.145 116.4C418.145 117.84 418.625 119.016 419.585 119.928C420.545 120.792 421.913 121.224 423.689 121.224C424.841 121.224 425.849 121.032 426.713 120.648C427.625 120.216 428.369 119.496 428.945 118.488C429.521 117.48 429.857 116.088 429.953 114.312L432.977 117.192C432.737 119.928 432.065 122.256 430.961 124.176C429.905 126.048 428.417 127.488 426.497 128.496C424.625 129.504 422.297 130.008 419.513 130.008ZM468.733 129.576C464.413 129.576 460.957 129.048 458.365 127.992C455.821 126.936 453.973 125.184 452.821 122.736C451.669 120.288 451.093 116.976 451.093 112.8L451.165 78.888H463.261L463.189 113.16C463.189 114.936 463.645 116.304 464.557 117.264C465.517 118.176 466.885 118.632 468.661 118.632H474.133V129.576H468.733ZM445.333 98.76V89.256H474.133V98.76H445.333ZM481.588 129V89.256H494.692V129H481.588ZM476.548 98.76V89.256H494.692V98.76H476.548ZM486.988 86.088C484.588 86.088 482.812 85.488 481.66 84.288C480.556 83.04 480.004 81.456 480.004 79.536C480.004 77.616 480.556 76.056 481.66 74.856C482.812 73.608 484.564 72.984 486.916 72.984C489.316 72.984 491.068 73.608 492.172 74.856C493.276 76.056 493.828 77.616 493.828 79.536C493.828 81.456 493.276 83.04 492.172 84.288C491.068 85.488 489.34 86.088 486.988 86.088ZM522.686 130.44C519.182 130.44 516.062 129.912 513.326 128.856C510.59 127.8 508.262 126.336 506.342 124.464C504.47 122.592 503.03 120.432 502.022 117.984C501.062 115.536 500.582 112.92 500.582 110.136V108.408C500.582 105.528 501.086 102.84 502.094 100.344C503.15 97.848 504.638 95.664 506.558 93.792C508.478 91.92 510.806 90.456 513.542 89.4C516.278 88.344 519.326 87.816 522.686 87.816C526.094 87.816 529.142 88.344 531.83 89.4C534.566 90.456 536.894 91.92 538.814 93.792C540.734 95.664 542.198 97.848 543.206 100.344C544.262 102.84 544.79 105.528 544.79 108.408V110.136C544.79 112.92 544.286 115.536 543.278 117.984C542.318 120.432 540.878 122.592 538.958 124.464C537.086 126.336 534.782 127.8 532.046 128.856C529.31 129.912 526.19 130.44 522.686 130.44ZM522.686 119.496C524.702 119.496 526.358 119.064 527.654 118.2C528.998 117.336 530.006 116.136 530.678 114.6C531.35 113.016 531.686 111.24 531.686 109.272C531.686 107.208 531.326 105.408 530.606 103.872C529.934 102.288 528.926 101.04 527.582 100.128C526.238 99.216 524.606 98.76 522.686 98.76C520.766 98.76 519.134 99.216 517.79 100.128C516.446 101.04 515.414 102.288 514.694 103.872C514.022 105.408 513.686 107.208 513.686 109.272C513.686 111.24 514.022 113.016 514.694 114.6C515.366 116.136 516.374 117.336 517.718 118.2C519.062 119.064 520.718 119.496 522.686 119.496ZM550.524 129V89.256H560.892V106.32H560.316C560.316 102.192 560.844 98.784 561.9 96.096C562.956 93.36 564.516 91.32 566.58 89.976C568.692 88.632 571.236 87.96 574.212 87.96H574.788C579.3 87.96 582.78 89.472 585.228 92.496C587.724 95.472 588.972 100.056 588.972 106.248V129H575.868V105.888C575.868 104.064 575.316 102.576 574.212 101.424C573.156 100.224 571.692 99.624 569.82 99.624C567.948 99.624 566.436 100.224 565.284 101.424C564.18 102.576 563.628 104.112 563.628 106.032V129H550.524Z" fill="black"/>
<path fill-rule="evenodd" clip-rule="evenodd" d="M50.768 63.6845L55.7311 69.7543C56.6652 70.9381 57.097 72.4414 56.9335 73.9405C56.7699 75.4396 56.0241 76.8144 54.8567 77.7689C53.6892 78.7235 52.1936 79.1813 50.6918 79.0438C49.1901 78.9063 47.8024 78.1845 46.8277 77.0339L41.8588 70.9636C37.4791 65.6073 35.4066 58.7307 36.0972 51.8465C36.7878 44.9622 40.185 38.6343 45.5414 34.2548C50.8978 29.8753 57.7747 27.8029 64.6592 28.4935C71.5437 29.1841 77.8718 32.5813 82.2515 37.9375L87.2141 44.013C87.7077 44.5957 88.0803 45.2708 88.3102 45.9991C88.5401 46.7273 88.6226 47.494 88.553 48.2545C88.4834 49.015 88.263 49.754 87.9047 50.4283C87.5464 51.1027 87.0574 51.699 86.4662 52.1824C85.875 52.6658 85.1934 53.0266 84.4613 53.2438C83.7292 53.4609 82.9611 53.5301 82.2019 53.4473C81.4427 53.3645 80.7077 53.1313 80.0396 52.7613C79.3715 52.3914 78.7838 51.8921 78.3107 51.2926L73.3419 45.2223C70.8562 42.3527 67.3495 40.5653 63.5669 40.24C59.7844 39.9147 56.024 41.0771 53.0849 43.4802C50.1458 45.8833 48.2596 49.3377 47.8271 53.1093C47.3945 56.881 48.4492 60.6785 50.768 63.6845ZM63.0849 87.8318C64.2656 86.8666 65.7814 86.41 67.2988 86.5622C68.8162 86.7144 70.211 87.4631 71.1765 88.6435L76.1454 94.7138C78.6311 97.5834 82.1377 99.3708 85.9203 99.6961C89.7029 100.021 93.4632 98.859 96.4023 96.4559C99.3415 94.0528 101.228 90.5984 101.66 86.8268C102.093 83.0551 101.038 79.2634 98.7187 76.2573L93.7562 70.1819C92.822 68.998 92.3902 67.4947 92.5538 65.9956C92.7173 64.4966 93.4632 63.1217 94.6306 62.1672C95.798 61.2126 97.2937 60.7548 98.7954 60.8923C100.297 61.0298 101.685 61.7516 102.66 62.9022L107.623 68.972C111.914 74.3366 113.916 81.1776 113.194 88.0095C112.472 94.8414 109.084 101.113 103.766 105.462C98.448 109.811 91.6288 111.886 84.7892 111.238C77.9497 110.59 71.642 107.27 67.2357 101.999L62.2732 95.9231C61.308 94.7424 60.8513 93.2267 61.0035 91.7094C61.1557 90.192 61.9044 88.7972 63.0849 87.8318ZM67.4777 52.973C66.5029 51.8224 65.1153 51.1006 63.6135 50.9631C62.1118 50.8256 60.6161 51.2835 59.4487 52.238C58.2813 53.1925 57.5354 54.5674 57.3719 56.0664C57.2083 57.5655 57.6401 59.0689 58.5743 60.2527L81.9225 87.8318C82.8972 88.9824 84.2848 89.7042 85.7866 89.8417C87.2883 89.9792 88.784 89.5214 89.9514 88.5668C91.1189 87.6123 91.8647 86.2374 92.0282 84.7384C92.1918 83.2393 91.76 81.736 90.8259 80.5521L67.4777 52.973Z" fill="black"/>
</svg>
